<?xml version="1.0" encoding="utf-8"?>
<!-- Generator: Adobe Illustrator 20.1.0, SVG Export Plug-In . SVG Version: 6.00 Build 0)  -->
<svg version="1.1" id="Layer_1" xmlns="http://www.w3.org/2000/svg" xmlns:xlink="http://www.w3.org/1999/xlink" x="0px" y="0px"
	 viewBox="0 0 863 438" style="enable-background:new 0 0 863 438;" xml:space="preserve">
<style type="text/css">
	.st0{fill:#FFFFFF;}
	.st1{fill:none;stroke:#FFFFFF;stroke-width:3.255;stroke-miterlimit:10;}
	.st2{fill:#ED3724;}
	.st3{fill:#F9B715;}
	.st4{fill:#231F20;}
	.st5{fill:none;}
</style>
<path class="st0" d="M286.6,253.3c6.2,0,12,1.4,14.6,2.9c0,0,2.6,1.5,2.9-1.6l1.1-13.1c0.4-8.7,4.1-13,8.2-15.7l0.1-1.4
	c-0.6,0.3-0.6,0.3-1.4,0.5c-0.8,0.2-1,0.3-2.7,0.7c-1.8,0.4-1.2,0.3-3.2,0.6c-1.9,0.3-2.3,0.2-4.5,0.3c-2.3,0.1-2.6,0-4.4-0.3
	c-1.9-0.2-2.5-0.4-4.5-0.8c-2-0.5-3.5-1.1-4.8-1.5c-1.3-0.5-3.5-1.8-4.5-2.3c-1-0.6-1-0.6-2.4-1.7l-1.7,0.9c-1,0.5-1.7,0.8-3.8,1.8
	c-2,1-3.8,1.4-6.8,2.2c-2.9,0.8-4.9,0.9-7.7,1c-2.8,0.1-5.7-0.7-7-1.1c-1.3-0.4-2.9-1.1-4.2-1.8c-1.3-0.7-1.3-0.7-2.1-1.3l-1.3,0.6
	c-0.9,0.4-1.3,0.7-2.6,1.1c-1.3,0.5-3,1.1-5.2,1.7c-2.1,0.6-4.2,0.7-4.2,0.7l-0.8,0.3c0,0-0.8,0.3-1,1c-0.1,0.7-0.4,2.1-0.6,2.8
	c0,0-0.2,0.7,1.8-0.4c1.9-1.1,6.2-2.2,10.8-2.2c4.8,0,9.3,1.5,13,4.5c4.2,3.3,6.6,7.9,6.6,13.3l0.2,7c0,0,0.2,7,3.6,5.1
	C271.3,255.3,278.7,253.3,286.6,253.3 M229.2,116l1.4,14.5c0.6,0,0.8,0,1.4,0c5.2,0,10.3,1.4,14.5,4.4c0.6,0.4,1.1,0.9,1.6,1.4
	l-0.5-8.8l-0.1-1.5c0-6.8,3.1-12.3,8.5-16.1c4.7-3.4,10.1-5.3,15.9-5.3c4.7,0,9.1,1.5,12.9,4.4c4.1,3.2,6.5,7.7,6.5,13l-0.1,1.6
	l-0.3,9.3c0,0-0.1,3.1,2.6,1.6c4.2-2.4,11.7-4.4,19.9-4.4c5.6,0,10.9,1.1,13.3,2.3c0,0,2.4,1.2,2.8-1.9l1.5-12.7
	c0.5-12.2,8.4-15.1,14-17.5c4.4-1.9,8.9-2.9,13.5-2.9c4.1,0,8.2,1.1,11.7,3.7c4.1,3.1,6.1,7.5,6.1,12.1c0,0.7-0.2,2.7-0.2,2.7
	l-3.8,17.4l2.5-1c3-1.1,6.2-1.8,9.5-1.8c5.7,0,11.2,1.7,15.7,5.5c1.1,0.9,2,1.8,2.8,2.8c8-5.5,17-8.3,26.8-8.3
	c6.5,0,12.6,1.5,17.9,4.9c0.8,0.5,1.6,1.1,2.3,1.7c6.4-4.2,13.2-6.7,20.3-6.7c4.6,0,8.8,1.3,12,4c5.1-2.6,10.5-4.1,16.2-4.1
	c5.5,0,10.7,1.7,15,5.2c4.8,3.8,7.2,9,7.4,14.8c0.1,3.9-1,9.2-2.7,15.2l-0.9,3.9c6.8,0,11.8,4.7,12,11.2l0,1.2
	c0.1,0-0.2,3.1-0.8,4.5l-0.7,1.2c-0.3,0.7-0.7,1.3-1.2,2c-4.2,7-14,22.9-14,22.9s-0.6,0.8-1.4,1.8c-0.9,1-2.2,2.4-4.3,3.9
	c-2.2,1.4-6.9,4.3-11.2,5.7c-4.3,1.3-7.3,2.2-11.8,2.1c-4.5-0.1-7.7-1.2-9.7-2.1c-1.9-0.9-3.1-1.6-4.4-2.7c-1.3-1.1-2-1.8-2.7-2.7
	c-0.7-0.8-0.7-0.8-1-1.3c0,0-0.3-0.5-0.7,0.2c-0.4,0.7-0.4,0.7-1.5,1.8c-1.1,1.1-1.7,1.9-3.3,2.8c-1.5,0.9-3.8,2.1-6,2.4
	c-2.3,0.3-3.5,0.4-5.9,0.4c-2.4,0-4-0.2-5.9,0.6c-1.9,0.8-7.4,3.3-9.9,4.2c-2.4,1-7.5,3.1-7.5,3.1l1.1-6.5c0,0,0.5-3.1-1.2-2.4
	c-1.7,0.7-1.7,0.7-3.6,1.2c-1.9,0.5-7.4,1.8-11.9,1.6c-4.4-0.1-7.4-0.7-9.4-1.3c-2-0.6-2.8-0.7-5.5-2c-2.6-1.3-3.3-1.8-3.9-2.2
	c-0.6-0.4-0.6-0.4-0.9-0.6c0,0-0.3-0.2-1.6,0.4c-1.3,0.6-1.3,0.6-4.5,2c-3.1,1.3-5.8,2.3-8.3,2.8c-2.5,0.5-3.2,0.5-5.4,0.5
	c-3.1,0-6.7-1.1-8.7-2.1c-2-1-4.6-2.6-5.7-3.7c-1.1-1-1.1-1-2.1-2.1c0,0-0.9-1-2,0.4c-1.1,1.4-1.1,1.4-3.4,2.8c-1.6,1-2.1,1.2-3,1.6
	l-0.6,0.2c0,0-0.6,0.2,1.7,2c2.3,1.8,4.3,6.3,4.3,11.1c0,0.7-0.2,2.7-0.2,2.7l-3.3,14.8c0,0-0.7,3-0.3,2.9c0.4-0.2,1.2-0.5,2.1-0.8
	c3.1-1.2,6.3-1.9,9.7-1.9c5.8,0,11.4,1.7,15.9,5.7c1.1,0.9,2,1.8,2.4,2.3c0,0,0.4,0.5,3-1.3c5.6-3.9,14.7-6.8,24.7-6.8
	c6.6,0,12.8,1.5,18.1,5.1c0.8,0.5,1.6,1.1,2,1.4c0,0,0.4,0.3,3-1.4c3.9-2.6,10.8-5.3,18-5.3c4.7,0,8.9,1.4,10.5,2.8
	c0,0,1.6,1.4,4.2,0c2.6-1.4,8.1-2.9,13.9-2.9c5.6,0,10.8,1.7,15.2,5.4c4.9,3.9,7.3,9.2,7.5,15.2c0.1,4-1.1,9.5-2.7,15.6l-0.5,2
	c0,0-0.5,2,2.6,2c3.8,0,8.8,4.9,9,11.5c0.1,2.2-0.4,4.3-1.1,6.1c-0.3,0.8-0.6,1.6-1.1,2.2c-0.9,1.3-1.5,2-2.1,2.7
	c-3.8,4.9-11.2,14-11.2,14s-3.3,4.3-6.1,6.1c-3.6,2.3-8.9,4.8-11.4,5.6c-2.5,0.9-5.1,1.6-8.2,1.9c-3.1,0.3-2,0.2-4.2,0.1
	c-2.2-0.1-4.7-0.3-7.7-1.5c-2-0.8-2.9-1.2-4.5-2.3c-1.5-1.1-2.2-1.7-3.2-2.7c-0.9-0.9-0.9-0.9-1.7-2c0,0-0.7-1.1-1.1-0.3
	c-0.4,0.8-0.4,0.8-1.3,1.7c-1,1-1.7,1.8-3,2.7c-1.4,0.9-2.6,1.6-4,2c-1.5,0.4-3.4,1-5.4,1.1c-2,0.1-5.6,0-7.1,0.1
	c-1.5,0.1-2.6,0.1-3.5,0.4c-1,0.3-4,1.7-6.4,2.6c-2.4,0.9-3.8,1.6-5.1,2.1c-1.3,0.5-1.3,0.5-2.2-3.8c0,0-0.7-3-1.8-2.6
	c-1.1,0.4-1.1,0.4-2.6,0.9c-1.5,0.5-4.2,1.4-7.1,1.7c-2.9,0.4-3.5,0.6-6.5,0.5c-3-0.1-5.2-0.2-7.5-0.7c-2.3-0.5-4.9-1.2-6.9-2.2
	c-2-0.9-3.4-1.7-4.5-2.5c-1.1-0.7-1.1-0.7-1.4-0.9c0,0-0.3-0.2-1.2,0.2c-0.9,0.4-0.9,0.4-2.5,1.1c-1.6,0.7-2.8,1.4-5.1,2.2
	c-2.3,0.8-4.4,1.7-6.9,2c-2.5,0.3-1.6,0.3-4,0.3c-2.5,0-3.8-0.3-6-0.9c-2.2-0.6-3.2-1.1-5-2.2c-1.8-1.1-2.1-1.4-3.4-2.5
	c-1.3-1.1-1.8-1.6-2.4-2.3l-0.6-0.6c0,0-0.6-0.6-1.4,0.3c-0.8,0.9-0.8,0.9-1.8,1.8c-1,0.8-2,1.8-4,2.7c-2,0.9-4,1.6-5.5,1.7
	c-1.4,0.1-3.3,0.2-5,0.4c-1.7,0.2-3.6,0.2-5,0.5c-1.4,0.3-2.9,0.8-5.5,1.7c-2.6,1-5.6,2.2-7.8,3.1c-2.2,0.9-2.2,0.9-3.5-2.3
	c0,0-1.2-2.9-2.7-2.4c-1.5,0.5-1.5,0.5-3.3,0.8c-1.8,0.3-4.3,0.7-6,0.7c-1.7,0-3.2,0-5.3-0.3c-2.1-0.3-4.7-0.7-7-1.5
	c-2.3-0.8-3.1-1.1-4.7-2c-1.5-0.8-2.3-1.2-3.1-1.8l-0.8-0.6c0,0-0.8-0.6-2,0.1c-1.2,0.7-1.2,0.7-2.7,1.3c-1.5,0.7-4.3,1.9-5.5,2.2
	c-1.1,0.3-4.4,1.3-6.1,1.5c-1.8,0.2-2.6,0.4-4.5,0.4c-1.9,0-3.9-0.1-6.3-0.8c-2.5-0.7-3.3-1.1-4.7-1.9c-1.4-0.8-1.6-0.9-2.3-1.4
	l-0.5-0.4c0,0-0.5-0.4-1.9,0.7c-1.4,1-1.4,1-2.5,1.6c-1.1,0.6-3.9,2.2-5.5,2.8c-1.6,0.6-4.7,1.7-6.8,2.2c-2.1,0.5-5,1-7.6,1.2
	c-2.6,0.2-2,0.2-4,0.1c-2,0-4.1-0.1-6.9-0.5c-2.8-0.4-4.9-0.9-6.9-1.4c-1.9-0.5-4.7-1.3-7.3-2.3c-2.5-1-5.6-2.3-7.9-3.4
	c-2.2-1.2-4.5-2.2-6.3-3.1l-2.3-1.2c0,0-2.3-1.2-3.9,0c-1.6,1.1-1.6,1.1-3.1,2c-1.5,0.9-3.5,2.1-5.3,2.9c-1.8,0.9-3.8,1.7-6,2.5
	c-2.2,0.8-5.1,1.6-7.4,2.1c-2.3,0.5-5.4,0.9-7.4,1.1c-2,0.2-4.1,0.3-6.1,0.3c-2.1,0-4.1,0-6.4-0.4c-2.2-0.3-6.2-1.2-7.6-1.7
	c-1.4-0.5-5.3-2.2-6.8-3.3c-1.6-1.1-4.9-3.3-6.5-5.2c-1.6-1.9-1.7-2-4.3-5.6l-7.6-10.7l-2-2.8c-1-1.5-1.9-2.9-2.9-5.2
	c-1-2.3-1.3-4.1-1.6-5.6c-0.4-2.1-0.5-4.2-0.5-6.4c0.2-9.6,4.4-17.8,12.3-23.4c6.7-4.7,14.7-6.7,23.4-6.7l0.8,0c0,0,0.8,0-0.6-2.8
	l-4.9-9.6c-4-7-5.9-15-5.8-23.7c0-1.5,0.2-3,0.4-4.5c-1.3-1-3.8-2.8-4.8-3.8c-1.4-1.4-4.5-4.7-5.9-6.7c-1.4-2-3.9-6.9-5-9.2
	c-1.1-2.3-6.5-12.6-7.5-14.8l-1.9-4.2c-3.4-6.5-5.3-13.7-5.6-17.6c0,0-0.3-3.9-0.7-3.9c-0.4,0-1.7-0.1-4.4-0.7
	c-2.2-0.5-3.3-0.9-5.4-1.8c-2.6-1.1-3.7-1.9-5.5-3.1c-1.8-1.2-4.5-3.6-6.2-5.7c-1.6-2-3.5-5.1-3.5-5.1l-12.5-23.8
	c-3.6-5.5-5.2-11.9-5-18.9c0.4-12.3,6-22.5,16.1-30.3c9.3-7,20.2-10.4,32.1-10.4c5.4,0,10.7,0.6,15.8,1.9c3.4,0.8,7.9,2.4,14,4.8
	c1.7,0.6,6.7,3.1,14,6.7l4.9,2.4c0,0,4.9,2.4,8.5,1.1c3.6-1.3,9.2-3.1,13.2-4.1c7.5-1.9,15.1-2.9,22.9-2.9c9.6,0,18.4,1.5,25.9,5
	c6.8,3.1,12,7.8,13.3,10.9c0,0,1.3,3.1,2.7,2.7c1.4-0.3,4.2-0.7,7-0.7c4.2,0,8.3,1.3,11.6,4.2c3.7,3,5.4,7.2,5.4,9.4
	c0,0,0,2.2,0,2.5C228.9,114,229.2,116,229.2,116"/>
<path class="st1" d="M286.6,253.3c6.2,0,12,1.4,14.6,2.9c0,0,2.6,1.5,2.9-1.6l1.1-13.1c0.4-8.7,4.1-13,8.2-15.7l0.1-1.4
	c-0.6,0.3-0.6,0.3-1.4,0.5c-0.8,0.2-1,0.3-2.7,0.7c-1.8,0.4-1.2,0.3-3.2,0.6c-1.9,0.3-2.3,0.2-4.5,0.3c-2.3,0.1-2.6,0-4.4-0.3
	c-1.9-0.2-2.5-0.4-4.5-0.8c-2-0.5-3.5-1.1-4.8-1.5c-1.3-0.5-3.5-1.8-4.5-2.3c-1-0.6-1-0.6-2.4-1.7l-1.7,0.9c-1,0.5-1.7,0.8-3.8,1.8
	c-2,1-3.8,1.4-6.8,2.2c-2.9,0.8-4.9,0.9-7.7,1c-2.8,0.1-5.7-0.7-7-1.1c-1.3-0.4-2.9-1.1-4.2-1.8c-1.3-0.7-1.3-0.7-2.1-1.3l-1.3,0.6
	c-0.9,0.4-1.3,0.7-2.6,1.1c-1.3,0.5-3,1.1-5.2,1.7c-2.1,0.6-4.2,0.7-4.2,0.7l-0.8,0.3c0,0-0.8,0.3-1,1c-0.1,0.7-0.4,2.1-0.6,2.8
	c0,0-0.2,0.7,1.8-0.4c1.9-1.1,6.2-2.2,10.8-2.2c4.8,0,9.3,1.5,13,4.5c4.2,3.3,6.6,7.9,6.6,13.3l0.2,7c0,0,0.2,7,3.6,5.1
	C271.3,255.3,278.7,253.3,286.6,253.3z M229.2,116l1.4,14.5c0.6,0,0.8,0,1.4,0c5.2,0,10.3,1.4,14.5,4.4c0.6,0.4,1.1,0.9,1.6,1.4
	l-0.5-8.8l-0.1-1.5c0-6.8,3.1-12.3,8.5-16.1c4.7-3.4,10.1-5.3,15.9-5.3c4.7,0,9.1,1.5,12.9,4.4c4.1,3.2,6.5,7.7,6.5,13l-0.1,1.6
	l-0.3,9.3c0,0-0.1,3.1,2.6,1.6c4.2-2.4,11.7-4.4,19.9-4.4c5.6,0,10.9,1.1,13.3,2.3c0,0,2.4,1.2,2.8-1.9l1.5-12.7
	c0.5-12.2,8.4-15.1,14-17.5c4.4-1.9,8.9-2.9,13.5-2.9c4.1,0,8.2,1.1,11.7,3.7c4.1,3.1,6.1,7.5,6.1,12.1c0,0.7-0.2,2.7-0.2,2.7
	l-3.8,17.4l2.5-1c3-1.1,6.2-1.8,9.5-1.8c5.7,0,11.2,1.7,15.7,5.5c1.1,0.9,2,1.8,2.8,2.8c8-5.5,17-8.3,26.8-8.3
	c6.5,0,12.6,1.5,17.9,4.9c0.8,0.5,1.6,1.1,2.3,1.7c6.4-4.2,13.2-6.7,20.3-6.7c4.6,0,8.8,1.3,12,4c5.1-2.6,10.5-4.1,16.2-4.1
	c5.5,0,10.7,1.7,15,5.2c4.8,3.8,7.2,9,7.4,14.8c0.1,3.9-1,9.2-2.7,15.2l-0.9,3.9c6.8,0,11.8,4.7,12,11.2l0,1.2
	c0.1,0-0.2,3.1-0.8,4.5l-0.7,1.2c-0.3,0.7-0.7,1.3-1.2,2c-4.2,7-14,22.9-14,22.9s-0.6,0.8-1.4,1.8c-0.9,1-2.2,2.4-4.3,3.9
	c-2.2,1.4-6.9,4.3-11.2,5.7c-4.3,1.3-7.3,2.2-11.8,2.1c-4.5-0.1-7.7-1.2-9.7-2.1c-1.9-0.9-3.1-1.6-4.4-2.7c-1.3-1.1-2-1.8-2.7-2.7
	c-0.7-0.8-0.7-0.8-1-1.3c0,0-0.3-0.5-0.7,0.2c-0.4,0.7-0.4,0.7-1.5,1.8c-1.1,1.1-1.7,1.9-3.3,2.8c-1.5,0.9-3.8,2.1-6,2.4
	c-2.3,0.3-3.5,0.4-5.9,0.4c-2.4,0-4-0.2-5.9,0.6c-1.9,0.8-7.4,3.3-9.9,4.2c-2.4,1-7.5,3.1-7.5,3.1l1.1-6.5c0,0,0.5-3.1-1.2-2.4
	c-1.7,0.7-1.7,0.7-3.6,1.2c-1.9,0.5-7.4,1.8-11.9,1.6c-4.4-0.1-7.4-0.7-9.4-1.3c-2-0.6-2.8-0.7-5.5-2c-2.6-1.3-3.3-1.8-3.9-2.2
	c-0.6-0.4-0.6-0.4-0.9-0.6c0,0-0.3-0.2-1.6,0.4c-1.3,0.6-1.3,0.6-4.5,2c-3.1,1.3-5.8,2.3-8.3,2.8c-2.5,0.5-3.2,0.5-5.4,0.5
	c-3.1,0-6.7-1.1-8.7-2.1c-2-1-4.6-2.6-5.7-3.7c-1.1-1-1.1-1-2.1-2.1c0,0-0.9-1-2,0.4c-1.1,1.4-1.1,1.4-3.4,2.8c-1.6,1-2.1,1.2-3,1.6
	l-0.6,0.2c0,0-0.6,0.2,1.7,2c2.3,1.8,4.3,6.3,4.3,11.1c0,0.7-0.2,2.7-0.2,2.7l-3.3,14.8c0,0-0.7,3-0.3,2.9c0.4-0.2,1.2-0.5,2.1-0.8
	c3.1-1.2,6.3-1.9,9.7-1.9c5.8,0,11.4,1.7,15.9,5.7c1.1,0.9,2,1.8,2.4,2.3c0,0,0.4,0.5,3-1.3c5.6-3.9,14.7-6.8,24.7-6.8
	c6.6,0,12.8,1.5,18.1,5.1c0.8,0.5,1.6,1.1,2,1.4c0,0,0.4,0.3,3-1.4c3.9-2.6,10.8-5.3,18-5.3c4.7,0,8.9,1.4,10.5,2.8
	c0,0,1.6,1.4,4.2,0c2.6-1.4,8.1-2.9,13.9-2.9c5.6,0,10.8,1.7,15.2,5.4c4.9,3.9,7.3,9.2,7.5,15.2c0.1,4-1.1,9.5-2.7,15.6l-0.5,2
	c0,0-0.5,2,2.6,2c3.8,0,8.8,4.9,9,11.5c0.1,2.2-0.4,4.3-1.1,6.1c-0.3,0.8-0.6,1.6-1.1,2.2c-0.9,1.3-1.5,2-2.1,2.7
	c-3.8,4.9-11.2,14-11.2,14s-3.3,4.3-6.1,6.1c-3.6,2.3-8.9,4.8-11.4,5.6c-2.5,0.9-5.1,1.6-8.2,1.9c-3.1,0.3-2,0.2-4.2,0.1
	c-2.2-0.1-4.7-0.3-7.7-1.5c-2-0.8-2.9-1.2-4.5-2.3c-1.5-1.1-2.2-1.7-3.2-2.7c-0.9-0.9-0.9-0.9-1.7-2c0,0-0.7-1.1-1.1-0.3
	c-0.4,0.8-0.4,0.8-1.3,1.7c-1,1-1.7,1.8-3,2.7c-1.4,0.9-2.6,1.6-4,2c-1.5,0.4-3.4,1-5.4,1.1c-2,0.1-5.6,0-7.1,0.1
	c-1.5,0.1-2.6,0.1-3.5,0.4c-1,0.3-4,1.7-6.4,2.6c-2.4,0.9-3.8,1.6-5.1,2.1c-1.3,0.5-1.3,0.5-2.2-3.8c0,0-0.7-3-1.8-2.6
	c-1.1,0.4-1.1,0.4-2.6,0.9c-1.5,0.5-4.2,1.4-7.1,1.7c-2.9,0.4-3.5,0.6-6.5,0.5c-3-0.1-5.2-0.2-7.5-0.7c-2.3-0.5-4.9-1.2-6.9-2.2
	c-2-0.9-3.4-1.7-4.5-2.5c-1.1-0.7-1.1-0.7-1.4-0.9c0,0-0.3-0.2-1.2,0.2c-0.9,0.4-0.9,0.4-2.5,1.1c-1.6,0.7-2.8,1.4-5.1,2.2
	c-2.3,0.8-4.4,1.7-6.9,2c-2.5,0.3-1.6,0.3-4,0.3c-2.5,0-3.8-0.3-6-0.9c-2.2-0.6-3.2-1.1-5-2.2c-1.8-1.1-2.1-1.4-3.4-2.5
	c-1.3-1.1-1.8-1.6-2.4-2.3l-0.6-0.6c0,0-0.6-0.6-1.4,0.3c-0.8,0.9-0.8,0.9-1.8,1.8c-1,0.8-2,1.8-4,2.7c-2,0.9-4,1.6-5.5,1.7
	c-1.4,0.1-3.3,0.2-5,0.4c-1.7,0.2-3.6,0.2-5,0.5c-1.4,0.3-2.9,0.8-5.5,1.7c-2.6,1-5.6,2.2-7.8,3.1c-2.2,0.9-2.2,0.9-3.5-2.3
	c0,0-1.2-2.9-2.7-2.4c-1.5,0.5-1.5,0.5-3.3,0.8c-1.8,0.3-4.3,0.7-6,0.7c-1.7,0-3.2,0-5.3-0.3c-2.1-0.3-4.7-0.7-7-1.5
	c-2.3-0.8-3.1-1.1-4.7-2c-1.5-0.8-2.3-1.2-3.1-1.8l-0.8-0.6c0,0-0.8-0.6-2,0.1c-1.2,0.7-1.2,0.7-2.7,1.3c-1.5,0.7-4.3,1.9-5.5,2.2
	c-1.1,0.3-4.4,1.3-6.1,1.5c-1.8,0.2-2.6,0.4-4.5,0.4c-1.9,0-3.9-0.1-6.3-0.8c-2.5-0.7-3.3-1.1-4.7-1.9c-1.4-0.8-1.6-0.9-2.3-1.4
	l-0.5-0.4c0,0-0.5-0.4-1.9,0.7c-1.4,1-1.4,1-2.5,1.6c-1.1,0.6-3.9,2.2-5.5,2.8c-1.6,0.6-4.7,1.7-6.8,2.2c-2.1,0.5-5,1-7.6,1.2
	c-2.6,0.2-2,0.2-4,0.1c-2,0-4.1-0.1-6.9-0.5c-2.8-0.4-4.9-0.9-6.9-1.4c-1.9-0.5-4.7-1.3-7.3-2.3c-2.5-1-5.6-2.3-7.9-3.4
	c-2.2-1.2-4.5-2.2-6.3-3.1l-2.3-1.2c0,0-2.3-1.2-3.9,0c-1.6,1.1-1.6,1.1-3.1,2c-1.5,0.9-3.5,2.1-5.3,2.9c-1.8,0.9-3.8,1.7-6,2.5
	c-2.2,0.8-5.1,1.6-7.4,2.1c-2.3,0.5-5.4,0.9-7.4,1.1c-2,0.2-4.1,0.3-6.1,0.3c-2.1,0-4.1,0-6.4-0.4c-2.2-0.3-6.2-1.2-7.6-1.7
	c-1.4-0.5-5.3-2.2-6.8-3.3c-1.6-1.1-4.9-3.3-6.5-5.2c-1.6-1.9-1.7-2-4.3-5.6l-7.6-10.7l-2-2.8c-1-1.5-1.9-2.9-2.9-5.2
	c-1-2.3-1.3-4.1-1.6-5.6c-0.4-2.1-0.5-4.2-0.5-6.4c0.2-9.6,4.4-17.8,12.3-23.4c6.7-4.7,14.7-6.7,23.4-6.7l0.8,0c0,0,0.8,0-0.6-2.8
	l-4.9-9.6c-4-7-5.9-15-5.8-23.7c0-1.5,0.2-3,0.4-4.5c-1.3-1-3.8-2.8-4.8-3.8c-1.4-1.4-4.5-4.7-5.9-6.7c-1.4-2-3.9-6.9-5-9.2
	c-1.1-2.3-6.5-12.6-7.5-14.8l-1.9-4.2c-3.4-6.5-5.3-13.7-5.6-17.6c0,0-0.3-3.9-0.7-3.9c-0.4,0-1.7-0.1-4.4-0.7
	c-2.2-0.5-3.3-0.9-5.4-1.8c-2.6-1.1-3.7-1.9-5.5-3.1c-1.8-1.2-4.5-3.6-6.2-5.7c-1.6-2-3.5-5.1-3.5-5.1l-12.5-23.8
	c-3.6-5.5-5.2-11.9-5-18.9c0.4-12.3,6-22.5,16.1-30.3c9.3-7,20.2-10.4,32.1-10.4c5.4,0,10.7,0.6,15.8,1.9c3.4,0.8,7.9,2.4,14,4.8
	c1.7,0.6,6.7,3.1,14,6.7l4.9,2.4c0,0,4.9,2.4,8.5,1.1c3.6-1.3,9.2-3.1,13.2-4.1c7.5-1.9,15.1-2.9,22.9-2.9c9.6,0,18.4,1.5,25.9,5
	c6.8,3.1,12,7.8,13.3,10.9c0,0,1.3,3.1,2.7,2.7c1.4-0.3,4.2-0.7,7-0.7c4.2,0,8.3,1.3,11.6,4.2c3.7,3,5.4,7.2,5.4,9.4
	c0,0,0,2.2,0,2.5C228.9,114,229.2,116,229.2,116z"/>
<path class="st0" d="M845.9,209.9c0,108.3-87.8,196.2-196.2,196.2s-196.2-87.8-196.2-196.2S541.4,13.7,649.7,13.7
	S845.9,101.6,845.9,209.9"/>
<path class="st2" d="M824.5,209.9c0,96.5-78.2,174.8-174.8,174.8c-96.5,0-174.8-78.3-174.8-174.8S553.2,35.1,649.7,35.1
	C746.3,35.1,824.5,113.4,824.5,209.9 M839.2,209.9c0-104.6-84.8-189.5-189.5-189.5c-104.6,0-189.5,84.8-189.5,189.5
	s84.8,189.5,189.5,189.5C754.4,399.4,839.2,314.6,839.2,209.9"/>
<path class="st3" d="M715.8,176c1.4,2.8,2.4,5,3.7,7.1c1.5,2.5,3.5,4.9,6.4,7.5c1.4,1.2,3.3,2.7,5.4,4.4l28.5,16.4l-46.6,59.9
	c-0.5,1-5.6,10.6-13.2,22.3c-8,12.3-18.7,27-29.6,36.1c-6.9,5.7-16.6,11.7-24.6,16.1c-8,4.5-16.3,8.5-16.3,8.5l10.8-46.3
	c1-18.5-0.4-31.5-7.7-50.2c-7.2-18.6-19-38.3-31.8-45.2c-10.8-5.8-26.2-12.6-41.8-14c-5.8-0.5-12.1-0.8-17.6-1l-2.1-0.1l1.4-1.6
	c3.5-4.1,7.7-8.5,11.5-11.4c7.2-5.4,21.1-10.9,21.3-11l3.9-1.5h136.3L715.8,176z"/>
<path class="st2" d="M575.2,163.7c-0.2-0.2-12.8-13.2-16.5-23.1c-6.6-17.5-5.6-31.3,4-47.2c10.6-17.4,29.3-24.4,47-25.6
	c4.6-0.3,9.9,0.7,14.9,2.1l4,1.1l-3.4,2.3c-1.8,1.2-3.4,2.6-4.6,4.3c-5.1,6.6-9.4,15.1-4.8,25c3.8,8.2,10.5,10.9,17.4,12.5
	c3.3,0.8,7.1,0.5,10,0.1l1.5-0.2l0.6,1.3c1.1,2.6,3,6,5.8,8.3c7.6,6.1,16.3,5.8,24.2,1.9c2.3-1.1,4.3-3,5.8-4.4l3.7,0
	c1.8,0.4,4,0.8,6.1,0.7c2,0,4.9-0.4,7.3-2.4c0.9-0.7,1.9-1.5,2.9-2.3c1.1-0.9,2.5-1.9,3.8-3.2c2.6-2.5,5.2-6.2,5.2-11.4
	c0-4-1.4-8.2-2.8-11.3l-1-2.4l2.6-0.3c3.7-0.5,7.6-0.5,10.3,0.1c16,3.4,29.7,18.2,32.6,29.6c2.8,10.9-0.8,26.1-6.3,32.8
	c-3.1,3.8-11,10.9-19.9,14.2l-147.8,0.1L575.2,163.7z M594.6,286.5c-0.8,4.7-2,7.3-3.2,9.6c-2.3,4.3-6.3,5.6-10.7,5.4
	c-6.8-0.3-10.3-5.7-11.8-11.8c-1.5-6.1-1.3-13.6-0.4-19.7c0.5-3.3,1.3-5.9,2.5-8.4c1.1-2.4,2.5-4.6,4.2-7.5c1.7-2.8,3.6-5.7,5.3-8.8
	c1.9-3.2,3.7-6.7,5.3-10.5c0.8-2,1.4-4.7,1.7-7.1c0.3-2,0.6-4.1,0.8-6.3l0.9-9.6l2.5,1.2c2.5,1.2,4.9,2.4,7.1,3.6
	c11.2,6,22.5,24.4,29.7,42.9c5.3,13.7,7.4,24.1,7.6,36.4l-0.2,0.9c-1.4,2.9-4.4,8.7-9.2,11c-2.9,1.4-6.5,2.2-8.9,1.7
	c-8.7-1.9-13.3-7.5-15.5-13.3c-0.6-1.6-1.1-3.3-1.4-5.1c-0.4-1.6-0.7-3.3-1.1-4.8l-0.5-20.1l-2.3-7.8l-2.4,7.8V286.5z"/>
<path class="st4" d="M744.5,185.3h2.2v-5.7h1.3c1.7,0,2.3,0.6,4,3.6l1.2,2.1h2.7l-1.6-2.6c-1.1-1.8-2-3-3.1-3.4
	c2.3-0.2,3.9-1.8,3.9-4c0-1.5-1.1-3.5-4.5-3.5h-6V185.3z M746.7,177.8v-4.1h3.5c1.4,0,2.4,0.8,2.4,2c0,1.4-1.1,2-2.8,2H746.7z
	 M760.5,178.4c0,5.8-4.7,10.5-10.5,10.5c-5.8,0-10.5-4.7-10.5-10.5c0-5.8,4.7-10.5,10.5-10.5C755.8,167.9,760.5,172.6,760.5,178.4
	 M762.5,178.4c0-6.9-5.6-12.5-12.6-12.5c-6.9,0-12.5,5.6-12.5,12.5c0,6.9,5.6,12.6,12.5,12.6C756.9,191,762.5,185.3,762.5,178.4
	 M615.9,188c0-3.8,3.1-6.9,6.9-6.9c3.8,0,6.9,3.1,6.9,6.9c0,3.8-3.1,6.9-6.9,6.9C619,194.9,615.9,191.8,615.9,188 M665.8,301
	l12.4,13.5l3-30.1l-11-12.9L665.8,301z M663.2,302l-10.8-11.7l-3.7,28.2l9.8,13.5L663.2,302z M578.3,164.6h146.3
	c8.5-3.1,16.1-10,19.1-13.6c5.1-6.2,8.5-20.8,5.9-31.1c-2.7-10.7-15.8-25-31.1-28.2c-2.4-0.5-6.1-0.5-9.7,0
	c1.4,3.3,2.9,7.7,2.9,12.1c0,5.9-3,10.1-5.7,12.8c-1.4,1.3-2.8,2.5-3.9,3.3c-1,0.8-2,1.5-2.9,2.2c-2.9,2.4-6.3,2.8-8.5,2.9
	c-2.4,0-4.7-0.3-6.6-0.8l-1.9-0.5c-1.5,1.5-3.8,3.5-6.3,4.8c-8.4,4.2-17.9,4.5-26.3-2.1c-3.2-2.5-5.2-6.3-6.4-9
	c-2.9,0.4-7,0.7-10.7-0.1c-7.2-1.7-14.6-4.6-18.7-13.6c-5.1-10.9-0.1-20.3,5.1-27c1.4-1.9,3.2-3.4,5.1-4.7c-4.9-1.4-10-2.3-14.2-2.1
	c-17.4,1.2-35.4,7.9-45.5,24.6c-9.3,15.3-10.2,28.4-3.8,45.5c3.6,9.5,15.8,22.2,16.1,22.5L578.3,164.6z M749.2,221.4l7.4-9.6
	c-1.7-0.7-3.5-1.5-5.3-2.4l-2.1-1.1V221.4z M746.1,225.4l0.8-1l0-17.2c-4.4-2.5-9.1-5.7-13.3-8.8l0.4,18.9L746.1,225.4z
	 M734.5,240.4l10-13l-10.4-6.9l0.4,19.7L734.5,240.4z M731.5,244.2l-0.3-25.8l-12.3-8.2l-1,25.7L731.5,244.2z M716.9,263.4
	l12.7-16.6l-11.8-7.2L716.9,263.4z M713.1,268.3l1.1-1.5l1-28.7l-11.7-7.1l-2.7,27.5L713.1,268.3z M697.8,289.4
	c3.9-5.7,8.1-11.5,12.4-17.3l1.2-1.6l-10.9-8.9L697.8,289.4z M694.3,294.6l0.8-1.2l0.1-1.2l3.1-32.6l-11.3-9.3l-3,33.4l9.5,11.2
	L694.3,294.6z M681.3,313c2.5-3.3,5.1-6.9,7.8-10.9l3.3-4.7l-8.7-10.3L681.3,313z M660.9,333.9c3.7-3,7.5-6.4,11.1-10
	c1.8-1.8,3.7-3.8,5.6-6.2l-12.3-13.3L660.9,333.9z M645.1,345c3.9-2.2,8.4-5.3,13.2-9.1l-10.2-13.8L645.1,345z M635.3,340.7
	c-0.7,2.3-1.4,4.5-2,6.6l-1,3l6.9-2.4l1.2-0.5L635.3,340.7z M641,312.3c-0.6,8.4-2.6,17.3-4.8,25.5l6.5,8.5l3.5-27L641,312.3z
	 M712.9,173.2H577.5l-3.7,1.5c-0.2,0.1-13.9,5.6-21.1,10.8c-3.8,2.8-7.9,7.1-11.3,11.2c5.5,0.2,11.9,0.5,17.7,1
	c15.8,1.4,31.4,8.3,42.2,14.1c13.1,7.1,25,27.2,32.2,45.7c7.4,18.9,8.7,32,7.7,50.7l5.3,7.4l4-31.3l13.1,14.2l5.2-32.7l12.7,15.1
	l3.5-35.4l13.5,10.9l2.9-30.4l14,8.4l1-29l14.6,9.8l-0.6-19.3c-2.2-1.7-4.1-3.3-5.5-4.5c-3-2.7-5-5.1-6.6-7.7
	c-1.3-2.1-2.2-4.3-3.7-7.1L712.9,173.2z M633.7,309.2c-2.7,3.2-8.6,6.2-14.7,6.3c-5.2,0.1-8.4-1.1-12.7-4c-5.5-3.7-8.1-7.6-9.6-14
	c-0.9,3.1-2,4.9-4.4,7.1c-4.2,3.9-10.1,3.8-14.3,3.3c-4.8-0.6-7.5-2.5-10-5.2c-5-5.2-8.5-20.9-5.3-34.8
	c2.6-11.4,11.9-20.5,17.9-34.9c1.7-4.2,2.6-16.3,2.8-21.2c-7.8-3.2-16.5-5.7-25-6.5c-14.3-1.3-32-1.3-32-1.3s11.6-16.8,21.9-24.4
	c8-5.9,22.7-11.8,22.7-11.8s-13.5-13.9-17.7-25.1c-7.2-19-6.1-34.6,4.4-52c11.9-19.5,32.6-26.9,51.4-28.2c14.7-1,36.4,9.9,36.4,9.9
	s-15.5,1.9-20.9,8.9c-4.7,6.1-7.4,12.3-4.2,19.3c2.7,5.9,7.3,8,13.7,9.5c5.3,1.2,13.9-1.3,13.9-1.3s2,8.6,6.1,11.8
	c5.6,4.5,11.9,4.4,18.3,1.3c3.5-1.7,7.4-6.7,7.4-6.7s10.7,4.4,14.5,1.3c3.8-3.2,9.9-6.3,9.9-12.6c0-6.3-4.8-14.3-6.1-16.2
	c-1.3-1.9,13.5-5,21.9-3.2c18.1,3.8,33.4,20.2,36.8,33.7c3.2,12.4-0.6,29.5-7.4,37.7c-4,4.9-15.5,15.2-28.2,17.5
	c2.7,5.3,3.6,8.2,8.6,12.6c5.1,4.4,16.6,13,24.6,16.8c8,3.8,14.3,5.7,14.3,5.7s-32.4,41.4-52.6,68.2c-15.4,20.4-27.6,41.5-39,52.6
	c-12.2,12-26.7,22.5-35.6,25.7c-8.8,3.2-21.9,7.6-21.9,7.6s12.3-29.9,13.7-50.1L633.7,309.2z M592.4,266.1l4.3-14.1l4.2,14.1
	l0.5,19.9c0.8,3,1.3,6.6,2.5,9.6c2.1,5.4,6.2,10.4,14.1,12.1c1.7,0.4,4.9-0.3,7.7-1.6c4.1-2,6.9-7.2,8.3-10.1
	c-0.2-12-2.2-22.3-7.5-35.7c-7.2-18.5-18.3-36.2-28.8-41.9c-2.2-1.2-4.5-2.4-7-3.5l-0.7,6.9c-0.2,2.2-0.5,4.4-0.8,6.4
	c-0.4,2.5-0.9,5.3-1.9,7.6c-1.6,3.9-3.5,7.4-5.4,10.8c-1.8,3.1-3.6,6-5.4,8.8c-3.4,5.5-5.5,8.8-6.4,15.1c-1.8,12-0.7,28.8,10.4,29.2
	c3.9,0.2,7.1-0.9,8.9-4.4c1.1-2.2,2.3-4.5,2.9-8.8V266.1z"/>
<path class="st4" d="M286.6,253.3c6.2,0,12,1.4,17.2,4.4l1.4-16.2c0.4-8.7,4.1-13,8.2-15.7l0.1-1.4c0,0-0.6,0.3-1.4,0.5
	c-0.8,0.2-1,0.3-2.7,0.7c-1.8,0.4-1.2,0.3-3.2,0.6c-1.9,0.3-2.3,0.2-4.5,0.3c-2.3,0.1-2.6,0-4.4-0.3c-1.9-0.2-2.5-0.4-4.5-0.8
	c-2-0.5-3.5-1.1-4.8-1.5c-1.3-0.5-3.5-1.8-4.5-2.3c-1-0.6-2.4-1.7-2.4-1.7l-1.7,0.9c-1,0.5-1.7,0.8-3.8,1.8c-2,1-3.8,1.4-6.8,2.2
	c-2.9,0.8-4.9,0.9-7.7,1c-2.8,0.1-5.7-0.7-7-1.1c-1.3-0.4-2.9-1.1-4.2-1.8c-1.3-0.7-2.1-1.3-2.1-1.3l-1.3,0.6
	c-0.9,0.4-1.3,0.7-2.6,1.1c-1.3,0.5-3,1.1-5.2,1.7c-2.1,0.6-4.2,0.7-4.2,0.7l-1.7,0.5c-0.2,1.4-0.5,2.8-0.9,4.2
	c3.9-2.1,8.2-3.2,12.7-3.2c4.8,0,9.3,1.5,13,4.5c4.2,3.3,6.6,7.9,6.6,13.3l0.4,14C271.3,255.3,278.7,253.3,286.6,253.3 M229.2,116
	l1.4,14.5c0.6,0,0.8,0,1.4,0c5.2,0,10.3,1.4,14.5,4.4c0.6,0.4,1.1,0.9,1.6,1.4l-0.5-8.8l-0.1-1.5c0-6.8,3.1-12.3,8.5-16.1
	c4.7-3.4,10.1-5.3,15.9-5.3c4.7,0,9.1,1.5,12.9,4.4c4.1,3.2,6.5,7.7,6.5,13l-0.1,1.6l-0.4,12.4c6.9-3.9,14.4-6,22.6-6
	c5.6,0,10.9,1.1,15.7,3.6l1.9-15.8c0.5-12.2,8.4-15.1,14-17.5c4.4-1.9,8.9-2.9,13.5-2.9c4.1,0,8.2,1.1,11.7,3.7
	c4.1,3.1,6.1,7.5,6.1,12.1c0,0.7-0.2,2.7-0.2,2.7l-3.8,17.4l2.5-1c3-1.1,6.2-1.8,9.5-1.8c5.7,0,11.2,1.7,15.7,5.5
	c1.1,0.9,2,1.8,2.8,2.8c8-5.5,17-8.3,26.8-8.3c6.5,0,12.6,1.5,17.9,4.9c0.8,0.5,1.6,1.1,2.3,1.7c6.4-4.2,13.2-6.7,20.3-6.7
	c4.6,0,8.8,1.3,12,4c5.1-2.6,10.5-4.1,16.2-4.1c5.5,0,10.7,1.7,15,5.2c4.8,3.8,7.2,9,7.4,14.8c0.1,3.9-1,9.2-2.7,15.2l-0.9,3.9
	c6.8,0,11.8,4.7,12,11.2l0,1.2c0.1,0-0.2,3.1-0.8,4.5l-0.7,1.2c-0.3,0.7-0.7,1.3-1.2,2c-4.2,7-14,22.9-14,22.9s-0.6,0.8-1.4,1.8
	c-0.9,1-2.2,2.4-4.3,3.9c-2.2,1.4-6.9,4.3-11.2,5.7c-4.3,1.3-7.3,2.2-11.8,2.1c-4.5-0.1-7.7-1.2-9.7-2.1c-1.9-0.9-3.1-1.6-4.4-2.7
	c-1.3-1.1-2-1.8-2.7-2.7c-0.7-0.8-1.3-1.8-1.3-1.8s-0.8,1.3-1.9,2.5c-1.1,1.1-1.7,1.9-3.3,2.8c-1.5,0.9-3.8,2.1-6,2.4
	c-2.3,0.3-3.5,0.4-5.9,0.4c-2.4,0-4-0.2-5.9,0.6c-1.9,0.8-7.4,3.3-9.9,4.2c-2.4,1-7.5,3.1-7.5,3.1l1.6-9.5c0,0-3.4,1.3-5.3,1.8
	c-1.9,0.5-7.4,1.8-11.9,1.6c-4.4-0.1-7.4-0.7-9.4-1.3c-2-0.6-2.8-0.7-5.5-2c-2.6-1.3-3.3-1.8-3.9-2.2c-0.6-0.4-1.2-0.8-1.2-0.8
	s-2.5,1.2-5.8,2.6c-3.1,1.3-5.8,2.3-8.3,2.8c-2.5,0.5-3.2,0.5-5.4,0.5c-3.1,0-6.7-1.1-8.7-2.1c-2-1-4.6-2.6-5.7-3.7
	c-1.1-1-3-3.1-3-3.1s-2.2,2.8-4.5,4.2c-1.6,1-2.1,1.2-3,1.6l-1.2,0.4c4.7,3.5,6.6,8.1,6.7,12.8c0,0.7-0.2,2.7-0.2,2.7l-3.9,17.9
	c0.8-0.4,1.7-0.7,2.5-1c3.1-1.2,6.3-1.9,9.7-1.9c5.8,0,11.4,1.7,15.9,5.7c1.1,0.9,2,1.8,2.8,2.9c8.1-5.6,17.2-8.5,27.2-8.5
	c6.6,0,12.8,1.5,18.1,5.1c0.8,0.5,1.6,1.1,2.4,1.7c6.5-4.3,13.4-7,20.6-7c4.7,0,8.9,1.4,12.1,4.1c5.2-2.7,10.7-4.3,16.5-4.3
	c5.6,0,10.8,1.7,15.2,5.4c4.9,3.9,7.3,9.2,7.5,15.2c0.1,4-1.1,9.5-2.7,15.6l-1,4c6.9,0,11.9,4.9,12.1,11.5c0.1,2.2-0.4,4.3-1.1,6.1
	c-0.3,0.8-0.6,1.6-1.1,2.2c-0.9,1.3-1.5,2-2.1,2.7c-3.8,4.9-11.2,14-11.2,14s-3.3,4.3-6.1,6.1c-3.6,2.3-8.9,4.8-11.4,5.6
	c-2.5,0.9-5.1,1.6-8.2,1.9c-3.1,0.3-2,0.2-4.2,0.1c-2.2-0.1-4.7-0.3-7.7-1.5c-2-0.8-2.9-1.2-4.5-2.3c-1.5-1.1-2.2-1.7-3.2-2.7
	c-0.9-0.9-2.4-3.1-2.4-3.1s-0.7,1.5-1.7,2.5c-1,1-1.7,1.8-3,2.7c-1.4,0.9-2.6,1.6-4,2c-1.5,0.4-3.4,1-5.4,1.1c-2,0.1-5.6,0-7.1,0.1
	c-1.5,0.1-2.6,0.1-3.5,0.4c-1,0.3-4,1.7-6.4,2.6c-2.4,0.9-3.8,1.6-5.1,2.1c-1.3,0.5-2.9-6.8-2.9-6.8s-2.1,0.9-3.6,1.3
	c-1.5,0.5-4.2,1.4-7.1,1.7c-2.9,0.4-3.5,0.6-6.5,0.5c-3-0.1-5.2-0.2-7.5-0.7c-2.3-0.5-4.9-1.2-6.9-2.2c-2-0.9-3.4-1.7-4.5-2.5
	c-1.1-0.7-1.6-1.1-1.6-1.1s-1.8,0.8-3.4,1.5c-1.6,0.7-2.8,1.4-5.1,2.2c-2.3,0.8-4.4,1.7-6.9,2c-2.5,0.3-1.6,0.3-4,0.3
	c-2.5,0-3.8-0.3-6-0.9c-2.2-0.6-3.2-1.1-5-2.2c-1.8-1.1-2.1-1.4-3.4-2.5c-1.3-1.1-1.8-1.6-2.4-2.3l-1.1-1.2c0,0-1.6,1.9-2.6,2.7
	c-1,0.8-2,1.8-4,2.7c-2,0.9-4,1.6-5.5,1.7c-1.4,0.1-3.3,0.2-5,0.4c-1.7,0.2-3.6,0.2-5,0.5c-1.4,0.3-2.9,0.8-5.5,1.7
	c-2.6,1-5.6,2.2-7.8,3.1c-2.2,0.9-4.7-5.2-4.7-5.2s-3.1,1-4.9,1.3c-1.8,0.3-4.3,0.7-6,0.7c-1.7,0-3.2,0-5.3-0.3
	c-2.1-0.3-4.7-0.7-7-1.5c-2.3-0.8-3.1-1.1-4.7-2c-1.5-0.8-2.3-1.2-3.1-1.8l-1.6-1.2c0,0-2.4,1.3-3.9,2c-1.5,0.7-4.3,1.9-5.5,2.2
	c-1.1,0.3-4.4,1.3-6.1,1.5c-1.8,0.2-2.6,0.4-4.5,0.4c-1.9,0-3.9-0.1-6.3-0.8c-2.5-0.7-3.3-1.1-4.7-1.9c-1.4-0.8-1.6-0.9-2.3-1.4
	l-1.1-0.7c0,0-2.7,2.1-3.9,2.7c-1.1,0.6-3.9,2.2-5.5,2.8c-1.6,0.6-4.7,1.7-6.8,2.2c-2.1,0.5-5,1-7.6,1.2c-2.6,0.2-2,0.2-4,0.1
	c-2,0-4.1-0.1-6.9-0.5c-2.8-0.4-4.9-0.9-6.9-1.4c-1.9-0.5-4.7-1.3-7.3-2.3c-2.5-1-5.6-2.3-7.9-3.4c-2.2-1.2-4.5-2.2-6.3-3.1
	l-4.7-2.3c0,0-3.2,2.2-4.7,3.1c-1.5,0.9-3.5,2.1-5.3,2.9c-1.8,0.9-3.8,1.7-6,2.5c-2.2,0.8-5.1,1.6-7.4,2.1c-2.3,0.5-5.4,0.9-7.4,1.1
	c-2,0.2-4.1,0.3-6.1,0.3c-2.1,0-4.1,0-6.4-0.4c-2.2-0.3-6.2-1.2-7.6-1.7c-1.4-0.5-5.3-2.2-6.8-3.3c-1.6-1.1-4.9-3.3-6.5-5.2
	c-1.6-1.9-1.7-2-4.3-5.6l-7.6-10.7l-2-2.8c-1-1.5-1.9-2.9-2.9-5.2c-1-2.3-1.3-4.1-1.6-5.6c-0.4-2.1-0.5-4.2-0.5-6.4
	c0.2-9.6,4.4-17.8,12.3-23.4c6.7-4.7,14.7-6.7,23.4-6.7l1.6,0l-6.3-12.4c-4-7-5.9-15-5.8-23.7c0-1.5,0.2-3,0.4-4.5
	c-1.3-1-3.8-2.8-4.8-3.8c-1.4-1.4-4.5-4.7-5.9-6.7c-1.4-2-3.9-6.9-5-9.2c-1.1-2.3-6.5-12.6-7.5-14.8l-1.9-4.2
	c-3.4-6.5-5.3-13.7-5.9-21.5c-0.8,0-2.1-0.1-4.8-0.8c-2.2-0.5-3.3-0.9-5.4-1.8c-2.6-1.1-3.7-1.9-5.5-3.1c-1.8-1.2-4.5-3.6-6.2-5.7
	c-1.6-2-3.5-5.1-3.5-5.1l-12.5-23.8c-3.6-5.5-5.2-11.9-5-18.9c0.4-12.3,6-22.6,16.1-30.3c9.3-7,20.2-10.4,32.1-10.4
	c5.4,0,10.7,0.6,15.8,1.9c3.4,0.8,7.9,2.4,14,4.8c1.7,0.6,6.7,3.1,14,6.7l9.9,4.8c7.1-2.6,12.8-4.4,16.8-5.4
	c7.5-1.9,15.1-2.9,22.9-2.9c9.6,0,18.4,1.5,25.9,5c6.8,3.1,12,7.8,14.7,13.9c2.7-0.7,5.5-1.1,8.4-1.1c4.2,0,8.3,1.3,11.6,4.2
	c3.7,3,5.4,7.2,5.4,11.6C228.9,114,229.2,116,229.2,116"/>
<path class="st0" d="M511.1,372.4c0-4.3-3.5-7.8-7.9-7.8c-4.3,0-7.8,3.5-7.8,7.8s3.5,7.9,7.8,7.9
	C507.6,380.3,511.1,376.7,511.1,372.4 M512.6,372.4c0,5.2-4.2,9.4-9.4,9.4c-5.2,0-9.4-4.2-9.4-9.4c0-5.2,4.2-9.4,9.4-9.4
	C508.4,363,512.6,367.2,512.6,372.4 M499.1,377.6v-10.1h4.5c2.5,0,3.3,1.6,3.3,2.7c0,1.6-1.2,2.8-2.9,3c0.9,0.3,1.5,1.2,2.3,2.5
	l1.2,2h-2l-0.9-1.6c-1.3-2.3-1.8-2.7-3-2.7h-1v4.3H499.1z M500.7,371.9h2.4c1.3,0,2.1-0.5,2.1-1.5c0-0.9-0.7-1.5-1.8-1.5h-2.6V371.9
	z M193.7,408.6c-2.1,5.8-6.4,8.7-13,8.7l-16.7,0.1l-0.5-11.1l18-0.6c2.2,0,3.2-1.1,3.2-3.2c0-1-0.3-1.9-1-2.7
	c-0.6-0.8-1.4-1.1-2.4-1.1h-6c-5.4,0-9.2-2-11.4-6c-1.6-2.5-2.3-5.4-2.3-8.8c0-2.4,0.4-4.5,1.1-6.3c2.2-5.7,6.4-8.5,12.6-8.5h17
	l0.6,11l-18.4,0.6c-2.2,0-3.3,1.1-3.3,3.4c0,1,0.3,1.9,1,2.6c0.7,0.7,1.5,1.1,2.5,1.1h5.7c5.6,0,9.5,2.1,11.9,6.2
	c1.5,2.6,2.2,5.4,2.2,8.6C194.8,404.5,194.5,406.6,193.7,408.6 M226.4,380.1c-0.1-0.8-0.5-1.5-1.1-2.2c-0.6-0.7-1.3-1.1-2.1-1.1
	h-8.7c-0.8,0-1.5,0.3-2.2,1c-0.7,0.7-1,1.4-1,2.2v18.7c0,0.8,0.3,1.6,1,2.3c0.7,0.7,1.4,1,2.2,1h8.7c0.8,0,1.5-0.3,2.2-1
	c0.6-0.7,1-1.4,1-2.2L226.4,380.1z M212.9,413.5c-3.6,0-6.4-1.6-8.5-4.9c-1.8-2.8-2.7-6.1-2.7-9.8V380c0-4,1.1-7.5,3.2-10.4
	c2-2.8,4.7-4.3,8-4.3h11.6c3.4,0,6.1,1.4,8.1,4.3c2.1,3.1,3.2,6.6,3.2,10.4l-0.1,19.2c0,3.8-1.1,7.2-3.2,10
	c-2.1,2.9-4.8,4.3-8.1,4.3H212.9z M254.7,415.1c-3.2,0-5.9-1.4-8.1-4.3c-2.1-2.7-3.2-6.2-3.2-10.4l-0.2-33.3l9.2-0.3l0.6,33.9
	c0,0.8,0.3,1.4,1,2c0.7,0.6,1.4,0.8,2.2,0.8h9.3c0.8,0,1.5-0.3,2.1-1c0.7-0.7,1-1.4,1-2.2l0.1-34.1l9-0.5l0.7,34.8
	c0,3.7-1.1,7.1-3.3,10.2c-2,2.9-4.7,4.3-8.1,4.3H254.7z M286.2,368.2l8.7-0.6l0.8,36c-0.1,0.6,0.1,0.8,0.5,0.8l11.2-0.1l0.6,11.1
	l-21.5,0.4L286.2,368.2z M346.4,385.4c0,0.6,0.3,0.9,0.8,0.9l12.4,0.1l0.5,10.7l-13,0.4c-0.5,0.1-0.7,0.4-0.7,0.9v17.5l-9.1,0.4
	l-0.1-47.7l27.6-0.8l0.4,11l-18.2,0.6c-0.4,0-0.6,0.3-0.6,0.8V385.4z M394.8,379c-0.1-0.8-0.5-1.5-1.1-2.2c-0.6-0.7-1.3-1.1-2.1-1.1
	h-8.7c-0.8,0-1.5,0.3-2.2,1c-0.7,0.7-1,1.4-1,2.2v18.7c0,0.8,0.3,1.6,1,2.3c0.7,0.7,1.4,1,2.2,1h8.7c0.8,0,1.5-0.3,2.2-1
	c0.6-0.7,1-1.4,1-2.2L394.8,379z M381.4,412.4c-3.6,0-6.4-1.6-8.5-4.9c-1.8-2.8-2.7-6.1-2.7-9.8v-18.9c0-4,1.1-7.5,3.2-10.4
	c2-2.8,4.7-4.3,8-4.3h11.6c3.4,0,6.1,1.4,8.1,4.3c2.1,3.1,3.2,6.6,3.2,10.4l-0.1,19.2c0,3.8-1.1,7.2-3.2,10
	c-2.1,2.9-4.8,4.3-8.1,4.3H381.4z M436.2,381.2c-0.1-0.8-0.5-1.5-1.1-2.2c-0.6-0.7-1.3-1.1-2.1-1.1h-8.7c-0.8,0-1.5,0.3-2.2,1
	c-0.7,0.7-1,1.4-1,2.2v18.7c0,0.8,0.3,1.6,1,2.3c0.7,0.7,1.4,1,2.2,1h8.7c0.8,0,1.5-0.3,2.2-1c0.6-0.7,1-1.4,1-2.2L436.2,381.2z
	 M422.8,414.7c-3.6,0-6.4-1.6-8.5-4.9c-1.8-2.8-2.7-6.1-2.7-9.8v-18.9c0-4,1.1-7.5,3.2-10.4c2-2.8,4.7-4.3,8-4.3h11.6
	c3.4,0,6.1,1.4,8.1,4.3c2.1,3.1,3.2,6.6,3.2,10.4l-0.1,19.2c0,3.8-1.1,7.2-3.2,10c-2.1,2.9-4.8,4.3-8.1,4.3H422.8z M478.4,384
	c-0.1-0.8-0.5-1.6-1.1-2.3c-0.6-0.7-1.4-1-2.2-1l-11.6,0.1c-0.5,0-0.7,0.3-0.7,0.8l0.2,23.7c0,0.4,0.2,0.7,0.7,0.7l11.6-0.1
	c0.8,0,1.5-0.3,2.1-1c0.6-0.7,1-1.4,1-2.2L478.4,384z M476.5,417.4h-22.8l-0.8-47.7l23.6-0.5c3.2,0,5.8,1.3,7.8,3.8
	c2.3,3.1,3.5,6.7,3.5,10.9v18.9c0,3.8-0.9,7.1-2.7,9.9C483,415.8,480.2,417.4,476.5,417.4"/>
<path class="st0" d="M253.2,258.4c-1.2,0.9-2.5,1.6-3.8,2.2c3.2,1.9,5.1,5.2,5.1,10c0,0.7-0.1,1.8-0.3,3.2c1.4-1.7,3.1-3.3,4.9-4.9
	c8.1-7.1,17.5-10.7,27.8-10.7c5.9,0,11.2,1.4,15.8,4.3c2,1.3,3.6,2.8,4.9,4.5c0,0,5.5-23.7,5.3-25.1c-0.3-1.7-3.4-1.9-3.4-2
	c0.7-9,7.3-10.9,11.4-12.7c4.1-1.8,8.1-2.5,11.9-2.5c3.3,0,6.5,0.9,9.1,2.9c3,2.3,4.4,5.4,4.4,9v0.3l-0.2,1.8l-6.1,27.8
	c3.5-2.7,7.1-4.8,10.7-6.1c2.7-1,5.4-1.6,8.1-1.6c4.9,0,9.3,1.4,12.9,4.5c2.1,1.7,3.5,3.8,4.5,6.2c8.4-7.1,17.9-10.7,28.6-10.7
	c5.9,0,11.2,1.4,15.7,4.3c1.7,1.1,3.2,2.4,4.4,3.8c7-5.3,14-8.3,21-8.3c5.1,0,8.9,1.9,11.2,5.4c5.6-3.6,11.4-5.5,17.4-5.5
	c4.6,0,8.8,1.4,12.3,4.3c3.7,3,5.7,7.1,5.8,11.8c0.1,3.3-0.9,8.2-2.6,14.3c-1.6,6.2-2.2,9.8-2.2,11.4c0.4-0.1,1-0.6,1.5-0.7
	c0.9-0.3,1.6-0.5,2.2-0.7c0.5-0.1,1.4-0.3,2.2-0.3c4.3,0,7.2,2.9,7.3,7.1c0.2,6.4-5.3,10.9-11.6,14.1c-5.9,3-11.7,4.7-17,4.7
	c-4.7,0-8.9-1.3-12.4-4c-3.8-3-5.6-7.2-5.7-12c0-2.4,0.4-5.4,1.1-8.8c1.5-6.9,2.3-10.8,2.5-12.2c-0.7,0.2-2.4,1.1-3.4,7.5
	c-0.4,2.6-1,5.4-1.6,8.3l-1.6,7.2c-1.7,8-7.1,12.7-15.4,12.7h-4.1c-3.9,0-3.2-0.1-6.4,0.9l-9.9,3.8l1.8-10c-1.1,0.7-2.3,1.3-3.4,1.9
	c-7.2,3.6-14.2,5.5-20.9,5.5c-8.3,0-15.7-2.5-21.4-7.7c-1.6,1.1-3.8,1.8-5.8,2.8c-5.7,2.8-10.8,4.5-15.1,4.5
	c-7.3,0-13.2-3.9-17.7-10.3c-0.7-1-1.4-2.2-2.2-3.5c-2.1,6.5-6.5,10.9-13.3,11.9l-0.3,0.1h-0.4c-2.5,0-6,0.3-10.4,0.9
	c-0.3,0.1-2-0.1-3.7,1.3l-7.9,3.6l1.8-9.1c-7.1,3.6-13.8,5.7-19.8,5.7c-8.5,0-15.9-2.7-21.8-8.2c-1.4,1-3.2,1.9-4.9,2.8
	c-5.9,3-11.5,4.7-16.9,4.7c-4.6,0-8.8-1.5-12.4-4.3c-0.9-0.8-1.8-1.6-2.5-2.5c-0.7,0.7-1.5,1.3-2.3,1.9c-7.7,6.2-16.9,9.2-27.4,9.2
	c-7.7,0-15.8-1.9-24.5-5.5c-1.3-0.5-7.4-3.5-18.4-9.1c-11.3,9.1-24.4,13.7-39.1,13.7c-8.3,0-15.5-2.1-21.5-6.5
	c-6.9-5.1-10.4-12.1-10.2-20.7c0.2-8.3,3.7-15,10.4-19.8c5.8-4,12.9-5.9,20.8-5.9c9.9,0,20.7,2.6,32.2,7.7c0.7-1.2,1.3-2.6,1.9-4.2
	c-10.4-1.8-19.3-5.9-26.5-12.4c-9.3-8.3-13.8-19-13.6-31.6c0.1-7.7,2.8-14.8,7.7-21c-9.4-2.1-17.6-6.3-24.3-12.7
	c-10-9.6-14.7-22.4-14.3-37.8c0.2-8.1,2.6-16.9,7-26.3l-0.6,0.2c-6.3,2.2-12.3,3.4-18,3.4c-8.9,0-16.5-2.6-22.4-8.1
	c-6-5.6-8.8-12.9-8.6-21.5c0.3-10.9,5.2-20,14.4-27c8.5-6.4,18.4-9.5,29.4-9.5c5.1,0,9.9,0.6,14.7,1.7c3.3,0.8,7.7,2.3,13.5,4.7
	c1.1,0.3,5.7,2.6,13.6,6.5l11.6,5.7c7.9-2.9,13.9-4.8,18.2-6c7.1-1.8,14.4-2.7,21.7-2.7c9.1,0,17.2,1.5,24,4.6
	c7.5,3.5,12.3,8.7,13.8,15.5c3.6-1.5,7.3-2.2,11.2-2.2c3.3,0,6.3,1,8.7,3.1c2.6,2.1,3.9,5.1,3.9,8.4v0.2l-0.2,1.9l-5.3,22.8l1-0.6
	c3.8-1.7,7.9-2.7,11.8-2.7c4.4,0,8.5,1.1,11.8,3.5c1.9,1.4,3.3,3.1,4.2,5.1c3.2-2.9,6.7-5.1,10.5-6.5c-0.5-0.3-1.1-0.7-1.6-1.1
	c-3.3-2.5-4.9-6-4.9-10c0-5.1,2.4-9.4,6.7-12.5c3.9-2.9,8.4-4.4,13.3-4.4c3.7,0,7.2,1.2,10.1,3.5c3.1,2.4,4.9,5.7,4.9,9.7
	c0,5.1-2.4,9.4-6.6,12.6c-1.2,0.9-2.4,1.6-3.7,2.2c3.2,1.8,5.1,5.1,5.1,9.7c0,0.7-0.1,1.8-0.3,3.1c1.4-1.7,3-3.3,4.8-4.8
	c8-6.9,17.2-10.4,27.4-10.4c5.8,0,11.1,1.3,15.6,4.2c1.9,1.2,3.6,2.7,4.9,4.3l4.8-22.4l0.1-0.2c0-0.3,0-0.9,0-1.4
	c0-0.3-3.6-2.6-3.6-2.7c0.3-6.2,7.5-9.9,11.6-11.6c4-1.8,8-2.8,11.7-2.8c3.3,0,6.4,0.9,9,2.8c2.9,2.2,4.3,5.3,4.4,8.7v0.3l-0.2,1.7
	l-5.9,27c3.5-2.6,7-4.6,10.5-5.9c2.6-1,5.3-1.5,8-1.5c4.9,0,9.2,1.4,12.7,4.4c2.1,1.7,3.5,3.7,4.4,6c8.3-6.9,17.7-10.4,28.2-10.4
	c5.8,0,11,1.3,15.5,4.2c1.7,1.1,3.2,2.3,4.4,3.7c6.9-5.1,13.8-8,20.7-8c5,0,8.8,1.9,11.1,5.2c5.5-3.5,11.3-5.3,17.1-5.3
	c4.6,0,8.7,1.3,12.1,4.2c3.7,2.9,5.6,6.9,5.7,11.5c0.1,3.2-0.9,8-2.5,13.9c-1.6,6-2.1,9.5-2.1,11.1c0.4-0.1,0.9-0.5,1.4-0.7
	c0.8-0.3,1.6-0.5,2.1-0.6c0.5-0.1,1.3-0.3,2.1-0.3c4.2,0,7.1,2.8,7.2,6.9c0.2,6.2-5.2,10.6-11.4,13.7c-5.9,2.9-11.5,4.5-16.7,4.5
	c-4.6,0-8.8-1.2-12.3-3.9c-3.7-2.9-5.6-7-5.7-11.7c-0.1-2.4,0.3-5.3,1.1-8.6c1.5-6.7,2.2-10.5,2.4-11.9c-0.7,0.1-2.4,1.1-3.3,7.3
	c-0.4,2.5-1,5.2-1.6,8.1l-1.6,7.1c-1.7,7.8-7,12.3-15.1,12.3h-4.1c-3.8,0-6.6,1.2-8.1,1.4l-7.9,3.9l1.7-10.5
	c-1.1,0.7-2.2,1.3-3.3,1.8c-7.1,3.5-14,5.4-20.6,5.4c-8.2,0-15.4-2.5-21.1-7.5c-1.6,1.1-3.7,1.7-5.7,2.7c-5.6,2.7-10.7,4.4-14.9,4.4
	c-7.2,0-13-3.8-17.5-10.1c-0.7-1-1.4-2.1-2.2-3.5c-2,6.3-6.3,10.5-13.1,11.6l-0.3,0.1h-0.4c-2.5,0-5.9,0.3-10.3,0.9
	c-0.3,0.1-2,0.3-3.7,1.6l-7.7,3.5l1.7-9.1c-7,3.5-13.6,5.5-19.6,5.5c-8.4,0-15.7-2.6-21.5-8c-1.4,1-3.1,1.8-4.9,2.7
	c-5.8,2.9-11.3,4.6-16.6,4.6c-4.5,0-8.7-1.4-12.3-4.2c-0.5-0.3-0.9-0.7-1.3-1.1c-0.5,0.3-1,0.5-1.5,0.7c-5.7,2.9-11.2,4.5-16.3,4.5
	c-4.5,0-8.6-1.3-12.1-3.9c-3.9-2.9-6-7-6-11.9c0-2.7,0.5-5.5,1.3-8.7c1.7-6.2,2.5-9.7,2.7-11.1c-1,0.5-2.5,2.2-3.7,7.4l-1.8,9.8
	c-0.9,4.1-2.2,7.9-4.4,10.6c-0.5,0.7-1,1.3-1.6,1.9l0.9,0c7.2,0,13.3,2.4,17.9,7.4c4.6,4.8,6.7,10.8,6.7,17.8
	c-0.1,14.7-7.4,28-20.9,39.9c-3.6,3.2-7.4,6.1-11.3,8.6c1.4-0.1,2.7-0.2,4.1-0.2c5.7,0,10.8,1.5,15.2,4.3l2.9-2.8
	c3.6-3.5,7.5-6.2,11.8-7.8c-0.6-0.3-1.1-0.7-1.6-1.1c-3.3-2.6-5-6.2-5-10.3c0-5.3,2.5-9.7,6.8-12.8c4-3,8.6-4.5,13.5-4.5
	c3.8,0,7.3,1.2,10.2,3.5c3.2,2.5,4.9,5.9,4.9,9.9C259.9,250.7,257.5,255.1,253.2,258.4 M87.6,118.9c1.9-2.2,4.3-4.6,7.1-7.4
	c-2.5-0.4-5-0.5-7.5-0.5c-10.8,0-11.9,2.9-11.9,4.9c0,0.4,0.1,0.5,0.1,0.5c0.2,0.1,0.5-0.1,1.1-0.1c0.4,0,0.9-0.1,1.7-0.1
	c1.2-0.1,2.2-0.2,2.9-0.2C83.8,116,86.2,117,87.6,118.9 M328.8,167.7c-2.1,1-4.5,1.5-7,1.5c-3.9,0-7.4-1.2-10.3-3.7
	c-1.6-1.5-2.7-3.3-3.4-5.3c-0.3,1-0.4,2.1-0.4,3.4c0,3.1,0.9,5,2.3,6.3c1.4,1.3,3.5,2.1,6.7,2.1c0.4-0.1,1.4-0.3,2-0.5
	c1.4-0.5,3.2-1.1,5.4-2.1c1.5-0.7,3-1.2,4.5-1.5L328.8,167.7z M388.9,166.8c-0.5,0.1-1.1,0.1-1.7,0.1c-3.1,0-6-1-8.6-2.8
	c-0.6-0.4-1.1-0.9-1.6-1.4c1.3,2.6,2.9,5.1,4.9,7.5c2.6,3.1,4.9,4.8,6.8,5.6c-0.1-1.2-0.2-2.4-0.2-3.6
	C388.5,170.4,388.6,168.5,388.9,166.8 M183.5,199.8c-1.6,0.4-2.5,0.8-2.9,1l-9.5,6.8l3.7-16.3c-2.7,3.1-5.7,6.1-9.3,8.9
	c-3.6,2.9-7.3,5.3-11.3,7.3c0.3,0.3,0.6,0.5,0.9,0.8c4.4,4,7.3,8.7,8.5,13.9c0.8-1.4,1.5-2.7,2.2-3.8
	C171.2,210.3,177,204,183.5,199.8 M184.7,148.4l4.3-18.9c-4.7,2.9-9.9,4.5-15.5,5.1c1.6,1,3,2.2,4.4,3.5
	C181,141.2,183.3,144.6,184.7,148.4 M147.9,130.4c-4.5-1.6-9.2-3.6-14.3-6c-11,9.1-16.3,19.4-16.5,31c-0.2,10.3,3.9,14,12.3,14
	c2.8,0,5.2-0.8,7.4-2.4c2.1-1.6,2.9-3.3,2.9-5.3c0-3-0.8-4.1-4.7-4.1c-0.1,0-0.8,0.1-2.2,0.4c-1.5,0.3-3,0.6-4.2,0.6
	c-5.3,0-8.4-3.5-8.3-8.4c0.1-7.5,7.7-12.6,16.8-16.4C140.6,132,144.2,131,147.9,130.4 M155.7,238.3h-0.1c-2.8,0-5.7-1.7-8.1-3.4
	c-1.1-0.8-1.9-1.3-2.5-1.6c-0.2-0.1-0.4-0.2-0.6-0.2c-1.6,0-2.5,0.5-3.3,1.4c-0.9,1.1-1.5,2.6-1.5,4.7c-0.1,3.7,1.2,6.4,3.8,8.6
	c1.3,1.1,3.6,2.5,6.9,4c0.5-1.3,1.2-2.9,1.9-4.9L155.7,238.3z M174.4,277.6c-1.5,0.4-3,0.8-4.6,1.2l-3.3,7.7c-0.9,2-1.9,4.1-3.2,6.2
	c4,1.4,7.9,2.1,11.8,2.1c1.7,0,3.3-0.5,4.9-1.7c1.3-0.9,1.7-1.8,1.7-2.9c-0.3-0.3-1.2-0.9-2.7-1.5c-2.6-1.1-5.4-3.4-5.3-7.3
	C173.6,280,173.9,278.7,174.4,277.6 M302.2,291.9c-2.2,1.1-4.5,1.6-7.1,1.6c-3.9,0-7.5-1.3-10.4-3.8c-1.6-1.6-2.7-3.4-3.4-5.4
	c-0.3,1-0.4,2.2-0.4,3.5c0,3.2,0.9,5.2,2.3,6.5c1.4,1.3,3.5,2.2,6.8,2.2c0.4-0.1,1.4-0.3,2-0.5c1.5-0.5,3.3-1.2,5.5-2.1
	c1.5-0.7,3.1-1.2,4.6-1.5L302.2,291.9z M363.1,291c-0.6,0-1.1,0.1-1.7,0.1c-3.2,0-6.1-1-8.7-2.9c-0.6-0.4-1.1-0.9-1.7-1.4
	c1.3,2.7,3,5.3,5,7.7c2.6,3.2,4.9,4.9,6.9,5.8c-0.1-1.2-0.2-2.5-0.2-3.7C362.7,294.7,362.8,292.8,363.1,291 M118.5,302.5
	c-2.9-0.9-5.3-1.3-7.4-1.3c-1.9,0-2.5,0.3-2.5,0.4c0,0.5,0.1,0.9,0.1,0.9c0.4,0.3,1.7,0.9,4.4,0.9C115,303.3,116.8,303,118.5,302.5
	 M192.8,237c-0.1,0-0.2,0.1-0.7,0.1c-1.4,0-2.7,0.5-4,2.2c-1,1.3-3,4.9-6.2,11.4c4.3-3,7.2-5.5,8.9-7.6c1.6-2,2.2-3.7,2.2-5.2
	C192.9,237.4,192.8,237.2,192.8,237"/>
<path class="st2" d="M255.4,245.4c0,3.8-1.7,6.9-4.9,9.4c-3.3,2.4-6.9,3.6-10.9,3.6c-3,0-5.5-0.8-7.4-2.3c-2.2-1.7-3.3-4-3.3-6.9
	c0-3.8,1.7-6.9,5-9.3c3.3-2.5,6.9-3.7,10.9-3.7c2.8,0,5.3,0.9,7.4,2.6C254.3,240.6,255.5,242.7,255.4,245.4 M282.6,122.4
	c0,3.7-1.6,6.7-4.9,9.1c-3.2,2.3-6.8,3.5-10.7,3.5c-2.9,0-5.4-0.7-7.3-2.2c-2.2-1.7-3.3-3.9-3.3-6.7c0-3.7,1.6-6.7,4.9-9
	c3.2-2.4,6.8-3.6,10.7-3.6c2.8,0,5.2,0.8,7.3,2.5C281.5,117.7,282.6,119.8,282.6,122.4 M406.2,278.6c0-2.1-1.2-3.1-3.4-3.1
	c-2.5,0-4.6,1.7-6.3,5c-0.7,1.4-1.3,3-1.8,4.7c2.7,0,5.1-0.5,7.3-1.5C404.8,282.6,406.2,280.9,406.2,278.6 M424.1,305.8
	c-0.8,1-1.8,2-3,3.1c-3.1,2.9-6.2,5.1-9.4,6.7c-6.8,3.4-13.1,5.1-18.9,5.1c-7.4,0-13.5-2.2-18.3-6.5c-1.1-1-2.1-2.2-3-3.4
	c-1.4,1.7-4,3.6-7.8,5.4c-5.5,2.7-9.9,4.1-13.1,4.1c-5.4,0-10-2.8-13.9-8.4c-2.1-2.9-4.6-8.1-7.5-15.5c-0.9,4.9-1.6,8.6-2.1,11.1
	c-1.4,6.3-4.9,10-10.3,10.9c-2.7,0-6.5,0.3-11.4,1c-1.2,0.3-2.6,0.7-4.6,2.3l2.5-11.6c-1.8,1.4-4,2.9-6.5,4.3
	c-7.7,4.2-14.4,6.4-20,6.4c-7.5,0-13.7-2.3-18.7-7c-1.1-1-2-2.1-2.9-3.3c-1.6,1.9-4,3.6-7.3,5.3c-5.5,2.8-10.4,4.2-14.8,4.2
	c-3.6,0-6.8-1.1-9.6-3.3c-2.5-2-3.8-4.4-3.9-7.3c-1.7,2.5-3.8,4.7-6.4,6.8c-6.8,5.5-15,8.2-24.6,8.2c-6.9,0-14.5-1.7-22.7-5.1
	c-1.4-0.6-8.3-4-20.8-10.3c-10.9,9.7-23.8,14.5-38.4,14.5c-7.5,0-13.8-1.9-18.9-5.7c-5.8-4.2-8.6-9.9-8.4-17.1
	c0.1-6.9,3-12.3,8.4-16.2c4.9-3.4,10.9-5.1,18.2-5.1c10.1,0,21.5,3,34.1,9c2.2-3.2,4.3-7.7,6.2-13.6c-12-1.1-21.9-5.1-29.6-12
	c-8.3-7.4-12.4-16.9-12.1-28.3c0.1-7.8,3.2-14.9,9.1-21.1c1-1.1,2.1-2.1,3.2-3c-12.3-1-22.4-5.2-30.3-12.8c-9-8.7-13.3-20.2-13-34.7
	c0.2-7.9,2.7-16.8,7.5-26.7c2.4-4.7,5.8-9.6,10.3-14.8c2.9-3.3,7-7.5,12.4-12.6c-5.4-1.5-10.7-2.3-16.1-2.3c-10.8,0-16.3,3-16.4,9.1
	c-0.1,3.2,1.7,4.7,5.5,4.7c0.5,0,1.2-0.1,2.2-0.2c1-0.1,1.8-0.2,2.4-0.2c2.5,0,3.7,1.2,3.6,3.5c-0.1,3.6-3.7,6.7-10.9,9.2
	c-5.9,2.1-11.4,3.1-16.5,3.1c-7.9,0-14.4-2.3-19.5-6.9c-5.1-4.7-7.5-10.8-7.3-18.3c0.3-9.6,4.5-17.5,12.6-23.6
	c7.7-5.7,16.5-8.6,26.6-8.6c4.7,0,9.2,0.5,13.6,1.6c3.1,0.7,7.5,2.3,13,4.5c0.7,0.2,5.1,2.3,13.1,6.3l13.4,6.5
	c8.6-3.1,15.1-5.3,19.6-6.5c6.8-1.7,13.6-2.6,20.6-2.6c8.6,0,16,1.4,22.2,4.2c7.9,3.7,11.9,9.3,11.8,16.8c0,0.6,0,1.2-0.1,1.8
	c4.9-3.3,10-4.9,15.1-4.9c2.4,0,4.3,0.7,5.8,2.1c1.6,1.3,2.4,3,2.4,5.2l-0.1,1.4l-7.5,32.2c2.1-1.3,5.3-3.2,9.6-5.6
	c3.3-1.5,6.5-2.2,9.7-2.2c3.7,0,6.7,0.9,9.2,2.6c2.7,2.1,4,4.8,4,8.2c0,1.6-0.9,5.9-2.7,13c-1.5,6.4-2.3,10.5-2.3,12.2
	c0,3,1.5,4.5,4.5,4.5c0.7,0,1.7-0.3,3-0.7l5.7-26.6c0-2.1-1.1-3.8-3.3-4.9c5.7-5.5,11.9-8.2,18.9-8.2c5.5,0,8.3,2.4,8.3,7.2
	c0,0.9-0.4,3.2-1.1,6.8l-3.4,14.3c-0.8,3.6-1.2,5.9-1.2,7c0,3.3,1.4,4.9,4.2,4.9c0.7,0,1.7-0.3,3-0.9c-0.6-2.4-1-5-1-7.7
	c0-8.8,3.8-16.4,11.3-22.9c7.3-6.2,15.4-9.3,24.5-9.3c5.1,0,9.5,1.2,13.2,3.5c4.2,2.7,6.3,6.4,6.4,11.1c0,3.1-1.1,5.7-3.4,8
	c-2.2,2.1-4.9,3.2-8,3.2c-2.9,0-5.3-0.9-7.2-2.5c-1.8-1.8-2.7-4.1-2.8-6.9c0-0.9,0.2-2,0.7-3.2l1.4-2.9c-7.1,2.1-10.6,6.9-10.6,14.3
	c0,4,1.2,7.1,3.6,9.4c2.4,2.3,5.7,3.4,9.8,3.4c1.4,0,4.5-1,9.2-2.9c2.2-0.9,4.1-1.4,5.6-1.4l0.8,0l10.8-50.1
	c0.2-0.5,0.3-1.5,0.3-2.8c0-2.3-1-3.9-2.9-4.7c1.8-2.2,4.5-4.1,8.3-5.7c3.7-1.7,7-2.5,10-2.5c2.5,0,4.6,0.7,6.3,1.9
	c1.7,1.3,2.6,3.1,2.6,5.4l-0.1,1.3l-8.8,39.9l6.1-5.6c4.5-4.1,8.9-6.9,13.2-8.5c2.2-0.9,4.3-1.3,6.4-1.3c3.9,0,7.2,1.1,9.8,3.3
	c2.6,2.1,3.9,5.1,4,8.8c0,3-1.1,5.5-3.3,7.7c-2.2,2.1-4.8,3.2-7.9,3.2c-2.1,0-4.1-0.6-5.9-1.9c-1.8-1.3-2.8-2.9-2.8-4.9
	c0-0.4,0.2-1.5,0.7-3.4c-1.5,0.7-3,1.6-4.5,2.9c-0.7,0.6-1.9,1.9-3.7,3.9c1.6,4.9,4.1,9.5,7.6,13.7c4.4,5.3,8.7,7.9,13,7.9l2.7-0.3
	c-0.9-2.5-1.3-5.3-1.4-8.3c-0.1-9,3.8-16.7,11.7-23.4c7.4-6.2,15.9-9.3,25.2-9.3c5.1,0,9.4,1.1,13,3.5c4.3,2.7,6.4,6.4,6.5,11
	c0.1,6.1-3.5,11.1-10.9,15c-6.3,3.3-12.9,4.9-19.7,4.9c0.1,4.3,2.5,6.5,7.4,6.5c3.1,0,7.3-1.4,12.6-4.1c5.4-2.8,8.5-4.2,9.3-4.2
	c1.2,0,2.1,0.3,2.7,0.8l4.2-21.1c-0.1-2.1-1.1-3.6-3.3-4.6c6.8-5.2,13.1-7.8,18.9-7.8c5.3,0,8.2,2.6,8.9,7.8
	c6.5-5.3,13-7.9,19.3-7.9c3.6,0,6.7,1.1,9.3,3.2c2.6,2.1,4,4.8,4.1,8.2c0.1,2.5-0.7,6.7-2.4,12.7c-1.6,6-2.3,10.1-2.3,12.3
	c0.1,2.7,1.5,4.1,4.3,4.1c0.8,0,1.8-0.2,3.2-0.7c1.4-0.5,2.4-0.7,2.9-0.7c1.7,0,2.6,0.8,2.7,2.5c0.1,3.5-2.9,6.7-9.1,9.9
	c-5.5,2.7-10.4,4.1-14.7,4.1c-3.8,0-6.9-1-9.5-3c-2.5-2-3.9-4.7-3.9-8.3c0-1.9,0.3-4.4,1-7.6c1.7-7.9,2.6-12.4,2.5-13.5
	c0-1-0.5-1.9-1.3-2.7c-0.9-0.7-1.9-1.1-2.9-1.1c-4.2,0-6.9,3.7-7.9,10.9c-0.4,2.4-0.9,5.1-1.5,7.9l-1.6,7c-1.3,6-4.9,9-10.9,9h-4
	c-4.5,0-8,1.1-10.5,3.3l3.1-15.7c-0.8,1-1.8,2-3,3c-3,2.8-6.1,5-9.2,6.5c-6.7,3.3-12.9,4.9-18.7,4.9c-7.3,0-13.3-2.1-18.1-6.3
	c-1.1-1-2.1-2.1-3-3.3c-1.4,1.7-4,3.5-7.7,5.3c-5.4,2.6-9.7,3.9-12.9,3.9c-5.3,0-9.9-2.7-13.8-8.1c-2.1-2.8-4.5-7.8-7.5-15
	c-0.8,4.8-1.5,8.4-2.1,10.8c-1.4,6.2-4.8,9.7-10.1,10.5c-2.7,0-6.4,0.3-11.2,1c-1.2,0.3-2.7,1.2-4.7,2.8l2.5-11.8
	c-1.7,1.4-3.9,2.8-6.4,4.1c-7.6,4.1-14.1,6.2-19.7,6.2c-7.4,0-13.6-2.3-18.5-6.7c-1.1-1-2-2.1-2.8-3.2c-1.5,1.8-3.9,3.5-7.1,5.2
	c-5.4,2.7-10.2,4.1-14.5,4.1c-3.6,0-6.7-1.1-9.5-3.3c-1.3-1-2.3-2.2-3-3.5c-1.3,0.9-2.8,1.8-4.6,2.6c-5.4,2.7-10.1,4.1-14.3,4.1
	c-3.7,0-6.8-1-9.3-3c-2.9-2.2-4.3-5-4.3-8.4c0-2.2,0.4-4.7,1.2-7.6c1.9-7.3,2.9-11.6,2.9-12.9c0-2.6-1.3-3.9-3.9-3.9
	c-4.2,0-7.1,3.7-8.7,11.2l-1.8,9.8c-0.8,3.8-2,6.7-3.5,8.7c-1.9,2.6-4.8,4.2-8.5,4.6c-8.3,1.1-13.3,2.3-15.2,3.7L196,119
	c0-0.8-0.2-1.6-0.5-2.2c-1.5,3.2-4,6-7.5,8.4c-5.3,3.6-11.5,5.4-18.5,5.4c-8.8,0-20.9-3.8-36.4-11.3c-13.3,10.2-20.2,22.2-20.4,36
	c-0.2,12.2,5.3,18.3,16.7,18.3c3.7,0,7.1-1.1,10.1-3.3c3.1-2.3,4.7-5.2,4.7-8.8c0.1-5.6-2.9-8.4-9-8.4c-0.7,0-1.8,0.1-3.2,0.5
	c-1.5,0.3-2.6,0.5-3.2,0.5c-2.7,0-4.1-1.4-4-4.1c0.1-4.4,4.8-8.6,14.1-12.5c5.3-2.3,10.9-3.5,16.6-3.5c8,0,14.5,2.4,19.4,7.3
	c5,4.7,7.5,11,7.4,18.8c-0.1,14.5-6.6,26.7-19.3,36.7c-5.5,4.3-11.3,7.6-17.5,9.9c2.4,1.2,4.7,2.8,6.8,4.8
	c5.3,4.8,7.9,10.4,7.8,16.9c-0.1,3.7-1.5,5.5-4.3,5.5c-1.3,0-3.1-0.8-5.5-2.5c-2.3-1.8-4.2-2.7-5.6-2.7c-2.8,0-5.1,1-6.9,3
	c-1.6,2-2.5,4.5-2.5,7.4c-0.1,4.9,1.7,8.9,5.3,11.9c2.4,2,6.5,4.2,12.3,6.4c0.2-0.3,1.5-3.4,3.7-9.1l3.7-9.3
	c0.9-2.4,2.4-5.4,4.4-9.1c2-3.8,3.7-6.9,5.2-9.4c9.7-15.3,21.3-22.9,34.7-22.9c6.1,0,11,2,14.6,6c3.7,3.9,5.6,8.8,5.5,14.9
	c-0.1,13.1-6.5,25.3-19.4,36.7c-11.6,10.2-24.5,16.8-38.6,19.6l-4.3,9.9c-1.3,3.1-3.2,6.3-5.8,9.9c6.1,3.1,12.3,4.6,18.4,4.6
	c2.7,0,5.3-0.9,7.6-2.5c2.3-1.7,3.5-3.9,3.5-6.5c0-2.1-1.7-4-5.3-5.6c-1.8-0.8-2.7-1.9-2.7-3.2c0-3.3,3.3-5.9,9.7-7.8
	c4.8-1.5,9.2-2.2,13.3-2.2c6.4,0,11.8,2.1,16.3,6.4c3,2.9,5,6.2,6,10l2.4-11.2c0-2.2-1.1-3.9-3.3-5c5.7-5.6,12.1-8.5,19.2-8.5
	c5.6,0,8.4,2.5,8.4,7.5c0,0.9-0.4,3.3-1.2,7l-3.5,14.7c-0.8,3.7-1.2,6.1-1.2,7.2c0,3.4,1.4,5.1,4.2,5.1c0.7,0,1.7-0.3,3.1-0.9
	c-0.6-2.5-1-5.1-1-7.9c0-9,3.9-16.9,11.6-23.6c7.4-6.4,15.7-9.6,24.9-9.6c5.1,0,9.6,1.2,13.4,3.6c4.3,2.7,6.4,6.6,6.4,11.5
	c0,3.2-1.1,5.9-3.5,8.2c-2.2,2.2-4.9,3.3-8.1,3.3c-2.9,0-5.3-0.9-7.3-2.6c-1.8-1.8-2.8-4.2-2.8-7.1c0-0.9,0.3-2.1,0.7-3.3l1.4-3
	c-7.2,2.2-10.7,7.1-10.7,14.7c0,4.1,1.2,7.3,3.6,9.7c2.5,2.3,5.7,3.5,9.9,3.5c1.5,0,4.6-1,9.3-3c2.2-0.9,4.1-1.4,5.7-1.4l0.9,0
	l11.1-51.5c0.2-0.6,0.3-1.5,0.3-2.8c0-2.4-1-4-2.9-4.9c1.8-2.3,4.6-4.2,8.4-5.8c3.7-1.7,7.1-2.5,10.1-2.5c2.5,0,4.6,0.7,6.4,2
	c1.8,1.3,2.6,3.2,2.7,5.5l-0.1,1.3l-9,41l6.2-5.7c4.6-4.2,9.1-7.1,13.5-8.7c2.2-0.9,4.4-1.3,6.5-1.3c4,0,7.3,1.1,9.9,3.5
	c2.6,2.2,4,5.2,4,9c0,3.1-1.1,5.7-3.4,7.9c-2.2,2.2-4.9,3.3-8,3.3c-2.1,0-4.1-0.7-6-2c-1.9-1.3-2.8-3-2.8-5c0-0.4,0.2-1.5,0.7-3.4
	c-1.5,0.7-3.1,1.7-4.6,3c-0.7,0.6-1.9,1.9-3.8,4c1.6,5.1,4.2,9.8,7.7,14.1c4.4,5.4,8.8,8.1,13.2,8.1l2.8-0.3
	c-0.9-2.6-1.3-5.4-1.4-8.5c-0.1-9.2,3.9-17.2,12-24c7.6-6.4,16.1-9.6,25.6-9.6c5.1,0,9.5,1.2,13.1,3.6c4.3,2.7,6.5,6.5,6.6,11.3
	c0.1,6.3-3.6,11.5-11.1,15.4c-6.3,3.3-13,5-20,5c0.1,4.4,2.6,6.7,7.5,6.7c3.1,0,7.4-1.4,12.8-4.2c5.5-2.9,8.6-4.3,9.4-4.3
	c1.2,0,2.1,0.3,2.7,0.8l4.3-21.6c0-2.1-1.1-3.7-3.3-4.7c6.9-5.3,13.3-8,19.2-8c5.3,0,8.3,2.7,9,8c6.7-5.5,13.2-8.2,19.6-8.2
	c3.7,0,6.8,1.1,9.4,3.3c2.7,2.1,4.1,4.9,4.1,8.5c0.1,2.6-0.8,6.9-2.5,13.1c-1.6,6.1-2.4,10.4-2.3,12.7c0.1,2.8,1.5,4.2,4.3,4.2
	c0.8,0,1.8-0.3,3.2-0.7c1.4-0.5,2.4-0.7,2.9-0.7c1.7,0,2.7,0.9,2.7,2.6c0.1,3.6-3,6.9-9.2,10.1c-5.6,2.8-10.6,4.2-15,4.2
	c-3.8,0-7-1-9.6-3c-2.6-2-3.9-4.9-4-8.5c0-1.9,0.3-4.5,1-7.8c1.8-8.2,2.7-12.8,2.6-13.8c0-1.1-0.5-2-1.4-2.7
	c-0.9-0.8-1.9-1.1-2.9-1.1c-4.3,0-7,3.7-8.1,11.2c-0.4,2.5-1,5.2-1.6,8.1l-1.6,7.2c-1.3,6.2-5.1,9.3-11.1,9.3h-4.1
	c-4.6,0-8.1,1.1-10.6,3.3L424.1,305.8z M128.2,301.5c-4.3-1.8-7.1-2.9-8.2-3.3c-3.2-1-6.1-1.5-8.7-1.5c-4.6,0-6.9,1.7-7,5.1
	c-0.1,4,2.9,6,8.9,6C118.8,307.8,123.9,305.7,128.2,301.5 M197.4,237.9c0-3.5-1.7-5.2-5.3-5.2c-3,0-5.5,1.3-7.6,3.9
	c-1.5,1.9-4.3,7-8.2,15.3l-1.7,3.7l-0.9,2l-0.5,0.9l-0.2,0.8c0.6,0,1,0,1.4-0.1c1.3-0.6,2.1-0.9,2.4-1l3.6-1.7c1.7-0.8,3-1.5,3.8-2
	c4.6-3.1,7.9-6,10-8.6C196.3,243.3,197.4,240.6,197.4,237.9 M431.4,154.7c-0.1-2-1.2-3.1-3.4-3.1c-2.5,0-4.5,1.6-6.2,4.9
	c-0.7,1.4-1.3,2.9-1.8,4.6c2.7,0,5.1-0.5,7.1-1.4C430,158.6,431.4,157,431.4,154.7 M172.7,110c0-3.3-2.5-4.9-7.7-4.9
	c-3.5,0-6.3,0.3-8.4,1l-4.2,1.3l-4.1,1.6l4.4,1.6l4.5,1.6c3,1.1,5.9,1.6,8.8,1.6C170.4,113.9,172.7,112.6,172.7,110"/>
<path class="st5" d="M108.8,302.4c0,0-0.1-0.5-0.1-0.9c0,0,0.6-0.4,2.5-0.4c2.1,0,4.5,0.4,7.4,1.3c-1.7,0.6-3.5,0.9-5.3,0.9
	C110.5,303.3,109.2,302.7,108.8,302.4 M356.1,294.6c-2-2.5-3.7-5-5-7.7c0.5,0.5,1.1,1,1.7,1.4c2.6,1.9,5.5,2.9,8.7,2.9
	c0.6,0,1.1,0,1.7-0.1c-0.3,1.8-0.4,3.7-0.4,5.6c0,1.3,0.1,2.5,0.2,3.7C361,299.5,358.7,297.8,356.1,294.6 M283.1,294.3
	c-1.3-1.3-2.3-3.2-2.3-6.5c0-1.3,0.1-2.5,0.4-3.5c0.7,2,1.8,3.9,3.4,5.4c2.9,2.5,6.5,3.8,10.4,3.8c2.6,0,4.9-0.5,7.1-1.6l-0.1,0.4
	c-1.5,0.3-3.1,0.8-4.6,1.5c-2.2,0.9-4.1,1.7-5.5,2.1c-0.6,0.2-1.6,0.4-2,0.5C286.6,296.5,284.5,295.6,283.1,294.3 M163.3,292.7
	c1.3-2.1,2.4-4.2,3.2-6.2l3.3-7.7c1.5-0.4,3.1-0.8,4.6-1.2c-0.5,1.1-0.8,2.4-0.8,3.8c-0.1,3.9,2.7,6.1,5.3,7.3
	c1.5,0.7,2.3,1.2,2.7,1.5c0,1.1-0.4,2-1.7,2.9c-1.6,1.1-3.1,1.7-4.9,1.7C171.2,294.8,167.3,294.1,163.3,292.7 M188,239.3
	c1.3-1.7,2.6-2.2,4-2.2c0.5,0,0.6-0.1,0.7-0.1c0,0.1,0.1,0.4,0.1,0.9c0,1.5-0.6,3.2-2.2,5.2c-1.7,2.1-4.5,4.6-8.9,7.6
	C185,244.2,187,240.6,188,239.3 M143.4,247.7c-2.5-2.2-3.8-4.9-3.8-8.6c0-2.1,0.6-3.5,1.5-4.7c0.8-0.9,1.7-1.4,3.3-1.4
	c0.2,0,0.4,0.1,0.6,0.2c0.6,0.3,1.4,0.8,2.5,1.6c2.3,1.7,5.3,3.4,8.1,3.4h0.1l-3.4,8.5c-0.7,1.9-1.4,3.6-1.9,4.9
	C147,250.2,144.8,248.9,143.4,247.7 M155.3,208.3c-0.3-0.3-0.6-0.6-0.9-0.8c3.9-2.1,7.7-4.5,11.3-7.3c3.5-2.8,6.6-5.7,9.3-8.9
	l-3.7,16.3l9.5-6.8c0.3-0.2,1.2-0.6,2.9-1c-6.5,4.3-12.3,10.5-17.5,18.6c-0.7,1.1-1.4,2.4-2.2,3.8
	C162.6,217,159.7,212.3,155.3,208.3 M382,170.2c-2-2.4-3.6-4.9-4.9-7.5c0.5,0.5,1,0.9,1.6,1.4c2.5,1.8,5.4,2.8,8.6,2.8
	c0.6,0,1.1,0,1.7-0.1c-0.3,1.7-0.4,3.6-0.4,5.4c0,1.2,0.1,2.4,0.2,3.6C386.9,175,384.6,173.3,382,170.2 M310.1,169.9
	c-1.3-1.3-2.3-3.1-2.3-6.3c0-1.3,0.1-2.4,0.4-3.4c0.7,2,1.8,3.8,3.4,5.3c2.8,2.5,6.4,3.7,10.3,3.7c2.5,0,4.9-0.5,7-1.5l-0.1,0.3
	c-1.5,0.3-3,0.8-4.5,1.5c-2.2,0.9-4,1.6-5.4,2.1c-0.6,0.2-1.6,0.4-2,0.5C313.6,172.1,311.5,171.2,310.1,169.9 M177.9,138.2
	c-1.4-1.3-2.8-2.5-4.4-3.5c5.7-0.5,10.9-2.2,15.5-5.1l-4.3,18.9C183.3,144.6,181,141.2,177.9,138.2 M117.1,155.3
	c0.2-11.6,5.5-21.8,16.5-31c5.1,2.4,9.9,4.4,14.3,6c-3.7,0.6-7.4,1.7-10.9,3.2c-9.1,3.8-16.7,9-16.8,16.4c-0.1,4.9,3,8.4,8.3,8.4
	c1.2,0,2.7-0.3,4.2-0.6c1.5-0.3,2.1-0.4,2.2-0.4c3.9,0,4.7,1.1,4.7,4.1c-0.1,2.1-0.9,3.8-2.9,5.3c-2.2,1.6-4.6,2.4-7.4,2.4
	C121,169.3,116.9,165.5,117.1,155.3 M75.3,116.4c0,0-0.1-0.1-0.1-0.5c0.1-2,1.1-4.9,11.9-4.9c2.5,0,5,0.2,7.5,0.5
	c-2.8,2.8-5.2,5.3-7.1,7.4c-1.4-1.9-3.7-2.9-6.6-2.9c-0.7,0-1.6,0.1-2.9,0.2c-0.8,0.1-1.3,0.1-1.7,0.1c-0.5,0-0.8,0.1-1,0.1
	C75.4,116.4,75.3,116.4,75.3,116.4 M40.4,83.8c-9.1,6.9-14,16-14.3,27c-0.3,8.6,2.6,15.9,8.6,21.5c6,5.4,13.6,8.1,22.4,8.1
	c5.7,0,11.7-1.2,18-3.4l0.6-0.2c-4.4,9.4-6.8,18.2-7,26.3c-0.4,15.4,4.3,28.2,14.3,37.8c6.7,6.4,14.9,10.6,24.4,12.7
	c-4.9,6.2-7.5,13.3-7.7,21c-0.3,12.7,4.3,23.3,13.6,31.6c7.2,6.5,16.1,10.6,26.5,12.4c-0.6,1.6-1.3,3-1.9,4.2
	c-11.6-5.1-22.3-7.7-32.2-7.7c-7.9,0-15,1.9-20.8,5.9c-6.7,4.7-10.2,11.5-10.4,19.8c-0.2,8.6,3.3,15.6,10.2,20.7
	c6,4.4,13.3,6.5,21.5,6.5c14.7,0,27.8-4.6,39.1-13.7c10.9,5.5,17.1,8.5,18.4,9.1c8.7,3.6,16.8,5.5,24.5,5.5c10.5,0,19.7-3,27.4-9.2
	c0.8-0.6,1.5-1.2,2.3-1.9c0.7,0.9,1.6,1.7,2.5,2.5c3.6,2.8,7.8,4.3,12.4,4.3c5.3,0,11-1.7,16.9-4.7c1.7-0.9,3.5-1.7,4.9-2.8
	c5.9,5.5,13.3,8.2,21.8,8.2c6.1,0,12.7-2,19.8-5.7l-1.8,9.1l7.9-3.6c1.7-1.4,3.4-1.2,3.7-1.3c4.4-0.6,7.9-0.9,10.4-0.9h0.4l0.3-0.1
	c6.9-1.1,11.3-5.5,13.3-11.9c0.8,1.4,1.5,2.5,2.2,3.5c4.5,6.5,10.4,10.3,17.7,10.3c4.3,0,9.4-1.7,15.1-4.5c2-1,4.2-1.7,5.8-2.8
	c5.8,5.2,13.1,7.7,21.4,7.7c6.7,0,13.7-1.9,20.9-5.5c1.1-0.5,2.3-1.2,3.4-1.9l-1.8,10l9.9-3.8c3.2-1,2.5-0.9,6.4-0.9h4.1
	c8.3,0,13.7-4.7,15.4-12.7l1.6-7.2c0.6-3,1.2-5.8,1.6-8.3c0.9-6.4,2.6-7.3,3.4-7.5c-0.2,1.4-0.9,5.3-2.5,12.2
	c-0.7,3.4-1.1,6.4-1.1,8.8c0.1,4.8,1.9,9,5.7,12c3.5,2.8,7.8,4,12.4,4c5.3,0,11-1.7,17-4.7c6.3-3.2,11.8-7.7,11.6-14.1
	c-0.1-4.2-3.1-7.1-7.3-7.1c-0.8,0-1.6,0.2-2.2,0.3c-0.6,0.1-1.3,0.4-2.2,0.7c-0.5,0.2-1.1,0.7-1.5,0.7c0-1.6,0.5-5.2,2.2-11.4
	c1.7-6.1,2.7-11,2.6-14.3c-0.1-4.7-2.1-8.8-5.8-11.8c-3.5-2.9-7.7-4.3-12.3-4.3c-5.9,0-11.7,1.9-17.4,5.5c-2.3-3.5-6.2-5.4-11.2-5.4
	c-7,0-14,3-21,8.3c-1.2-1.4-2.7-2.7-4.4-3.8c-4.5-2.9-9.8-4.3-15.7-4.3c-10.6,0-20.1,3.6-28.6,10.7c-0.9-2.3-2.4-4.4-4.5-6.2
	c-3.6-3.1-8-4.5-12.9-4.5c-2.7,0-5.5,0.5-8.1,1.6c-3.6,1.3-7.2,3.4-10.7,6.1l6.1-27.8l0.2-1.8v-0.3c0-3.6-1.5-6.7-4.4-9
	c-2.6-2-5.8-2.9-9.1-2.9c-3.8,0-7.7,0.7-11.9,2.5c-4.2,1.8-10.7,3.7-11.4,12.7c0,0.1,3.1,0.3,3.4,2c0.3,1.5-5.3,25.1-5.3,25.1
	c-1.3-1.7-2.9-3.2-4.9-4.5c-4.6-2.9-9.9-4.3-15.8-4.3c-10.3,0-19.7,3.6-27.8,10.7c-1.8,1.6-3.4,3.2-4.9,4.9c0.2-1.3,0.3-2.4,0.3-3.2
	c0-4.7-1.9-8.1-5.1-10c1.3-0.6,2.5-1.4,3.8-2.2c4.3-3.3,6.7-7.7,6.7-13c0-4-1.8-7.5-4.9-9.9c-2.9-2.4-6.4-3.5-10.2-3.5
	c-4.9,0-9.5,1.5-13.5,4.5c-4.4,3.1-6.8,7.5-6.8,12.8c0,4.1,1.7,7.7,5,10.3c0.5,0.4,1.1,0.8,1.6,1.1c-4.3,1.6-8.2,4.3-11.8,7.8
	l-2.9,2.8c-4.5-2.9-9.5-4.3-15.2-4.3c-1.3,0-2.7,0.1-4.1,0.2c3.9-2.5,7.6-5.4,11.3-8.6c13.5-11.9,20.8-25.3,20.9-39.9
	c0-7-2.1-13-6.7-17.8c-4.5-5-10.7-7.4-17.9-7.4l-0.9,0c0.6-0.6,1.1-1.2,1.6-1.9c2.1-2.7,3.5-6.4,4.4-10.6l1.8-9.8
	c1.1-5.3,2.7-6.9,3.7-7.4c-0.2,1.4-1.1,4.9-2.7,11.1c-0.8,3.1-1.3,6-1.3,8.7c0,4.8,2,8.9,6,11.9c3.4,2.6,7.5,3.9,12.1,3.9
	c5.1,0,10.5-1.7,16.3-4.5c0.5-0.3,1-0.5,1.5-0.7c0.4,0.4,0.9,0.7,1.3,1.1c3.6,2.8,7.7,4.2,12.3,4.2c5.3,0,10.8-1.7,16.6-4.6
	c1.7-0.9,3.5-1.7,4.9-2.7c5.8,5.3,13.1,8,21.6,8c6,0,12.5-2,19.5-5.5l-1.7,9.1l7.7-3.5c1.7-1.3,3.3-1.5,3.7-1.6
	c4.4-0.6,7.8-0.9,10.3-0.9h0.4l0.3-0.1c6.8-1.1,11.1-5.4,13.1-11.6c0.8,1.3,1.5,2.5,2.2,3.5c4.5,6.3,10.3,10.1,17.5,10.1
	c4.2,0,9.3-1.7,14.9-4.4c1.9-0.9,4.1-1.6,5.7-2.7c5.7,5.1,12.9,7.5,21.1,7.5c6.6,0,13.5-1.9,20.6-5.4c1.1-0.5,2.3-1.2,3.3-1.8
	l-1.7,10.5l7.9-3.9c1.5-0.2,4.3-1.4,8.1-1.4h4.1c8.2,0,13.4-4.6,15.1-12.3l1.6-7.1c0.6-2.9,1.1-5.6,1.6-8.1c0.9-6.2,2.6-7.2,3.3-7.3
	c-0.2,1.4-0.9,5.1-2.4,11.9c-0.7,3.3-1.1,6.2-1.1,8.6c0.1,4.7,1.9,8.7,5.7,11.7c3.5,2.7,7.7,3.9,12.3,3.9c5.2,0,10.9-1.7,16.7-4.5
	c6.2-3.1,11.6-7.5,11.4-13.8c-0.1-4.1-3-6.9-7.2-6.9c-0.8,0-1.6,0.2-2.1,0.3c-0.5,0.1-1.3,0.3-2.1,0.6c-0.5,0.2-1.1,0.6-1.4,0.7
	c0-1.5,0.5-5.1,2.1-11.1c1.6-5.9,2.6-10.7,2.5-13.9c-0.1-4.6-2-8.6-5.7-11.5c-3.4-2.9-7.6-4.2-12.1-4.2c-5.9,0-11.6,1.9-17.1,5.3
	c-2.3-3.3-6.1-5.2-11.1-5.2c-6.9,0-13.8,2.9-20.7,8c-1.2-1.4-2.7-2.6-4.4-3.7c-4.5-2.9-9.7-4.2-15.5-4.2c-10.5,0-19.9,3.5-28.2,10.4
	c-0.9-2.3-2.3-4.3-4.4-6c-3.5-3-7.9-4.4-12.7-4.4c-2.7,0-5.3,0.5-8,1.5c-3.5,1.3-7.1,3.3-10.5,5.9l5.9-27l0.2-1.7v-0.3
	c0-3.5-1.4-6.6-4.4-8.7c-2.6-1.9-5.7-2.8-9-2.8c-3.7,0-7.7,1-11.7,2.8c-4.1,1.7-11.3,5.4-11.6,11.6c0,0.1,3.6,2.4,3.6,2.7
	c0,0.5,0,1.1,0,1.4l-0.1,0.2l-4.8,22.4c-1.3-1.6-2.9-3.1-4.9-4.3c-4.6-2.8-9.8-4.2-15.6-4.2c-10.2,0-19.4,3.5-27.4,10.4
	c-1.7,1.5-3.3,3.1-4.8,4.8c0.2-1.3,0.3-2.4,0.3-3.1c0-4.6-1.9-7.9-5.1-9.7c1.3-0.6,2.5-1.3,3.7-2.2c4.3-3.1,6.6-7.4,6.6-12.6
	c0-3.9-1.8-7.3-4.9-9.7c-2.9-2.3-6.3-3.5-10.1-3.5c-4.9,0-9.4,1.5-13.3,4.4c-4.3,3.1-6.7,7.3-6.7,12.5c0,4,1.7,7.5,4.9,10
	c0.5,0.4,1.1,0.8,1.6,1.1c-3.7,1.4-7.2,3.6-10.5,6.5c-1-1.9-2.4-3.6-4.2-5.1c-3.4-2.4-7.4-3.5-11.8-3.5c-3.9,0-8,1-11.8,2.7l-1,0.6
	l5.3-22.8l0.2-1.9v-0.2c0-3.3-1.2-6.3-3.9-8.4c-2.4-2.2-5.5-3.1-8.7-3.1c-3.8,0-7.6,0.8-11.2,2.2c-1.5-6.9-6.3-12.1-13.8-15.5
	c-6.9-3.1-14.9-4.6-24-4.6c-7.3,0-14.6,0.9-21.7,2.7c-4.3,1.1-10.4,3.1-18.2,6l-11.6-5.7c-7.9-3.9-12.5-6.2-13.6-6.5
	c-5.8-2.4-10.2-3.9-13.5-4.7c-4.7-1.2-9.6-1.7-14.7-1.7C58.8,74.3,48.9,77.5,40.4,83.8"/>
</svg>